<svg width="76" height="60" viewBox="0 0 76 60" fill="none" xmlns="http://www.w3.org/2000/svg">
<path d="M35.0745 0.0310783C31.8643 0.372906 27.6435 1.75508 24.8643 3.37505C19.2613 6.64471 15.1296 11.7127 13.0935 17.8061C12.5882 19.3369 12.068 21.7 11.8897 23.2903L11.8005 24.1374L10.7304 24.39C6.62849 25.3709 2.95756 28.4028 1.17411 32.2521C0.237793 34.2882 0 35.5366 0 38.2861C0 40.3817 0.0445863 40.9167 0.341828 41.9868C1.75373 47.1885 5.97456 51.2013 11.1168 52.2713C12.3504 52.524 13.1975 52.5537 19.3653 52.5537H26.2316V50.1015V47.6492H19.618C15.3525 47.6492 12.7368 47.5898 12.2315 47.4857C10.4035 47.0993 8.29305 45.8063 7.01491 44.2607C3.04673 39.5197 4.71128 32.371 10.4035 29.7404C11.4884 29.2202 12.4247 28.9973 14.0744 28.8487C15.1445 28.7446 15.7984 28.4177 16.3186 27.7043C16.5564 27.3773 16.6455 26.9463 16.7347 25.6236C16.9428 22.5917 17.3589 20.734 18.3695 18.252C20.2422 13.6448 23.7942 9.81033 28.342 7.44726C38.8495 2.00774 51.8538 6.30288 57.1002 16.959C57.8433 18.4601 58.0811 19.1437 58.9133 22.027C59.3592 23.5726 59.7456 23.8847 61.7223 24.3752C65.5121 25.2818 68.2616 27.3922 69.8667 30.6321C70.7733 32.4602 71.1151 33.9315 71.1151 35.9082C71.1151 41.3477 67.459 45.9995 62.1384 47.352C61.0683 47.6195 60.4887 47.6492 55.4059 47.6492H49.8623V50.1015V52.5537H55.4802C58.631 52.5537 61.4993 52.4794 62.0492 52.3902C69.1682 51.2607 74.8455 45.5388 75.871 38.4496C76.1236 36.7256 75.9899 33.3519 75.6035 31.8954C74.1024 26.2329 70.1788 21.9378 64.873 20.1395L63.3868 19.6342L63.0004 18.3709C60.5036 10.1522 54.0534 3.67229 45.7752 1.08628C43.219 0.283733 41.6584 0.0608025 38.5671 0.0162163C36.9769 -0.0135078 35.4015 0.00135422 35.0745 0.0310783Z" fill="white"/>
<path d="M37.7498 28.7298C37.5863 28.7595 37.2891 28.8189 37.081 28.8635C36.6946 28.9527 26.8262 38.6576 26.8262 38.9549C26.8262 39.0292 27.5841 39.8466 28.4907 40.7681L30.1701 42.4475L32.875 39.7426L35.5948 37.0228V48.3626V59.6875H38.0471H40.4993V48.4369V37.1714L43.1745 39.8466L45.8496 42.5218L47.5885 40.7681L49.3422 39.0292L44.4378 34.1098C41.7329 31.4198 39.3995 29.131 39.236 29.0419C38.8496 28.8189 38.1214 28.6703 37.7498 28.7298Z" fill="white"/>
</svg>
