<svg width="22" height="23" viewBox="0 0 22 23" fill="none" xmlns="http://www.w3.org/2000/svg">
<path d="M7.07997 0.788625C4.37049 1.29609 2.58984 3.82887 3.05199 6.52476C3.37822 8.44134 4.76468 9.96373 6.65407 10.4893C7.27933 10.6615 8.29426 10.6932 8.95124 10.5573C9.97976 10.3443 10.818 9.87764 11.5475 9.11645C12.5533 8.06075 13.0019 6.7649 12.8931 5.24251C12.7436 3.18548 11.2348 1.40483 9.20044 0.874712C8.63408 0.725192 7.64181 0.684414 7.07997 0.788625ZM8.86968 1.80808C10.3377 2.16149 11.4659 3.30781 11.8465 4.82567C11.9643 5.29689 11.9507 6.16229 11.8193 6.65616C11.3979 8.26464 10.0568 9.43361 8.38488 9.6511C6.88514 9.8414 5.32198 9.05302 4.52001 7.69827C3.91286 6.67428 3.80412 5.34673 4.23456 4.25478C4.62422 3.28063 5.46697 2.41522 6.41393 2.0165C7.14341 1.7084 8.10849 1.62684 8.86968 1.80808Z" fill="white"/>
<path d="M7.28387 11.7581C7.22044 11.7672 6.98936 11.7989 6.76282 11.8261C5.59384 11.9711 4.27534 12.5148 3.25136 13.2715C1.37103 14.667 0.247362 16.7739 0.0298782 19.3066C-0.0290237 20.0044 -0.00636909 20.2128 0.147682 20.3669L0.256424 20.4756H6.49549H12.73L13.0291 20.752C13.822 21.477 14.7372 21.9346 15.7567 22.1113C16.1916 22.1838 17.0435 22.1838 17.4784 22.1113C18.8921 21.8666 20.1154 21.0737 20.9219 19.8866C21.7737 18.6315 22.0139 16.9143 21.5472 15.4463C20.7271 12.8773 18.1309 11.3821 15.4848 11.9575C14.6058 12.1478 13.7993 12.5646 13.097 13.199L12.8614 13.4119L12.6213 13.2352C11.5475 12.4468 10.2063 11.9348 8.80173 11.7763C8.4166 11.7355 7.53307 11.7219 7.28387 11.7581ZM9.39075 12.8591C10.3241 13.0766 11.0309 13.3757 11.774 13.8695L12.2633 14.1912L12.064 14.5582C11.3254 15.9266 11.2575 17.6347 11.8782 19.0756C11.9688 19.2795 12.0368 19.4562 12.0277 19.4607C12.0187 19.4698 9.5312 19.4924 6.49549 19.506L0.98137 19.5377L1.00402 19.361C1.10824 18.5772 1.14448 18.3642 1.23963 17.9881C1.95552 15.2379 4.12129 13.2488 6.89874 12.7912C7.45152 12.7006 8.86516 12.7413 9.39075 12.8591ZM17.6823 12.9543C18.8286 13.2624 19.8209 14.0689 20.3556 15.1291C20.6591 15.7317 20.7951 16.3162 20.7905 17.0321C20.786 18.6542 19.8753 20.0769 18.3801 20.7928C17.7548 21.0873 17.3833 21.1688 16.6176 21.1688C15.8518 21.1688 15.4803 21.0873 14.855 20.7928C13.3553 20.0769 12.4491 18.6587 12.4446 17.0321C12.4401 16.4929 12.4944 16.135 12.6485 15.6864C13.1423 14.2365 14.3158 13.2035 15.8473 12.8818C16.2823 12.7912 17.2202 12.8274 17.6823 12.9543Z" fill="white"/>
<path d="M16.2913 14.7622L16.1418 14.8936L16.1282 15.7137L16.1146 16.5338H15.3081H14.5061L14.3702 16.6743C14.266 16.783 14.2388 16.851 14.2388 17.0141C14.2388 17.1908 14.2615 17.2406 14.3883 17.3539L14.5333 17.4853H15.3262H16.1146L16.1282 18.3054L16.1418 19.1255L16.2913 19.2569C16.4952 19.4381 16.7399 19.4381 16.9438 19.2569L17.0933 19.1255L17.1069 18.3054L17.1205 17.4853H17.9089H18.7018L18.8468 17.3539C18.9736 17.2406 18.9963 17.1908 18.9963 17.0141C18.9963 16.851 18.9691 16.783 18.8649 16.6743L18.729 16.5338H17.927H17.1205L17.1069 15.7137L17.0933 14.8936L16.9438 14.7622C16.835 14.6625 16.7535 14.6308 16.6176 14.6308C16.4816 14.6308 16.4001 14.6625 16.2913 14.7622Z" fill="white"/>
</svg>
