<svg width="15" height="14" viewBox="0 0 15 14" fill="none" xmlns="http://www.w3.org/2000/svg">
<path d="M6.07759 0.0340023C5.8347 0.123666 5.6001 0.368203 5.53662 0.596438C5.51178 0.691536 5.36826 1.72403 5.36826 1.81097C5.36826 1.82456 5.30202 1.85716 5.22474 1.88433C5.1447 1.90879 4.96805 1.97672 4.83281 2.03377C4.69757 2.09355 4.57889 2.13974 4.56785 2.13974C4.55957 2.13974 4.33601 1.974 4.07104 1.77293C3.53284 1.36265 3.4252 1.31103 3.11883 1.31375C2.79315 1.31646 2.72967 1.35722 2.06174 2.01204C1.42694 2.63425 1.35517 2.73206 1.32205 3.01464C1.30825 3.13147 1.31653 3.21027 1.36069 3.35427C1.41038 3.51187 1.4711 3.60696 1.79402 4.01181C1.99826 4.27265 2.16662 4.49545 2.16662 4.5036C2.16662 4.51447 2.1197 4.6313 2.05898 4.76444C2.00102 4.89758 1.93202 5.07147 1.90718 5.14755C1.87958 5.22634 1.8437 5.29155 1.82714 5.29155C1.80782 5.29427 1.5263 5.32688 1.19785 5.37035C0.535446 5.45458 0.430565 5.48718 0.237363 5.67738C0.173882 5.73987 0.0966011 5.84855 0.0607207 5.91648C0.00276003 6.03603 0 6.06049 0 6.94897C0 7.83746 0.00276003 7.86191 0.0607207 7.98146C0.0966011 8.04939 0.173882 8.15807 0.237363 8.22057C0.430565 8.41076 0.535446 8.44337 1.19785 8.5276C1.5263 8.57107 1.80782 8.60367 1.82714 8.60639C1.8437 8.60639 1.87958 8.6716 1.90718 8.74768C1.93202 8.82648 2.00102 9.00037 2.05898 9.13351C2.1197 9.26664 2.16662 9.38348 2.16662 9.39434C2.16662 9.4025 1.99826 9.6253 1.79402 9.88614C1.4711 10.291 1.41038 10.3861 1.36069 10.5437C1.31929 10.685 1.30825 10.7665 1.32205 10.8806C1.35793 11.174 1.40762 11.242 2.0507 11.875C2.72967 12.5407 2.79039 12.5815 3.11883 12.5842C3.4252 12.5869 3.53284 12.5353 4.07104 12.125C4.33601 11.9239 4.55957 11.7582 4.57337 11.7582C4.58441 11.7582 4.70309 11.8044 4.83557 11.8642C4.96805 11.9212 5.1447 11.9892 5.22474 12.0136C5.30202 12.0408 5.36826 12.0761 5.36826 12.0924C5.36826 12.1114 5.40414 12.3886 5.4483 12.7092C5.53386 13.3613 5.5725 13.4727 5.76294 13.6574C5.82642 13.7199 5.93406 13.796 6.00307 13.8313C6.12451 13.8884 6.14935 13.8911 7.05188 13.8911C7.95441 13.8911 7.97925 13.8884 8.10069 13.8313C8.16969 13.796 8.28009 13.7199 8.34357 13.6574C8.53401 13.47 8.56989 13.3667 8.65545 12.7119C8.69961 12.3886 8.7355 12.1114 8.7355 12.0924C8.7355 12.0761 8.80174 12.0408 8.88178 12.0136C8.95906 11.9892 9.1357 11.9212 9.27094 11.8642C9.40618 11.8044 9.52486 11.7582 9.5359 11.7582C9.54418 11.7582 9.76775 11.9239 10.0327 12.125C10.5709 12.5353 10.6786 12.5869 10.9849 12.5842C11.3134 12.5815 11.3768 12.538 12.042 11.8859C12.7182 11.2229 12.7707 11.1469 12.7762 10.8262C12.7789 10.5192 12.7293 10.416 12.3097 9.88342C12.1055 9.62258 11.9371 9.4025 11.9371 9.39434C11.9371 9.38348 11.9841 9.26664 12.0448 9.13351C12.1027 9.00037 12.1717 8.82648 12.1966 8.74768C12.2242 8.6716 12.2518 8.60639 12.2601 8.60639C12.2711 8.60639 12.5278 8.5765 12.8314 8.53846C13.5628 8.4488 13.6456 8.42163 13.8581 8.21513C14.1176 7.95973 14.1203 7.94342 14.112 6.9055C14.1038 6.07136 14.101 6.03332 14.043 5.91648C14.0072 5.84855 13.9299 5.73987 13.8664 5.67738C13.6732 5.48718 13.5683 5.45458 12.9059 5.37035C12.5775 5.32688 12.2959 5.29427 12.2766 5.29155C12.2601 5.29155 12.2242 5.22634 12.1966 5.14755C12.1717 5.07147 12.1027 4.89758 12.0448 4.76444C11.9841 4.6313 11.9371 4.51447 11.9371 4.5036C11.9371 4.49545 12.1055 4.27536 12.3097 4.01453C12.7265 3.48469 12.7789 3.37873 12.7762 3.07442C12.7762 2.75923 12.721 2.67772 12.042 2.01204C11.3768 1.35994 11.3134 1.31646 10.9849 1.31375C10.6786 1.31103 10.5709 1.36265 10.0327 1.77293C9.76775 1.974 9.54418 2.13974 9.5359 2.13974C9.52486 2.13974 9.40618 2.09355 9.27094 2.03377C9.1357 1.97672 8.95906 1.90879 8.88178 1.88433C8.80174 1.85716 8.7355 1.82184 8.7355 1.80554C8.7355 1.78652 8.69961 1.50938 8.65545 1.18604C8.56989 0.531228 8.53401 0.427979 8.34357 0.2405C8.28009 0.178008 8.16969 0.10193 8.10069 0.0666075C7.98201 0.00954914 7.94613 0.00683212 7.07948 0.00139809C6.35911 -0.0040369 6.16039 0.0041151 6.07759 0.0340023ZM7.61216 4.12593C8.20281 4.24276 8.64993 4.47643 9.08326 4.89758C9.50002 5.2997 9.74291 5.70455 9.88919 6.23981C9.95267 6.47077 9.96095 6.55228 9.96095 6.94897C9.96095 7.34567 9.95267 7.42718 9.88919 7.65813C9.74291 8.1934 9.50002 8.59824 9.08326 9.00037C8.12277 9.92961 6.72067 10.0954 5.5449 9.41336C5.20266 9.21773 4.74725 8.76942 4.54853 8.4325C3.98548 7.49239 3.98548 6.39741 4.54577 5.47088C4.71413 5.19374 5.03981 4.8378 5.30754 4.63945C5.9589 4.15853 6.81727 3.96562 7.61216 4.12593Z" fill="white"/>
</svg>
