<svg width="19" height="20" viewBox="0 0 19 20" fill="none" xmlns="http://www.w3.org/2000/svg">
<path d="M8.03305 0.911558C7.71202 1.03194 7.40194 1.36027 7.31803 1.66671C7.2852 1.79439 7.0955 3.18066 7.0955 3.2974C7.0955 3.31564 7.00795 3.35942 6.9058 3.3959C6.80001 3.42873 6.56653 3.51993 6.38777 3.59654C6.20902 3.6768 6.05215 3.73881 6.03756 3.73881C6.02661 3.73881 5.73112 3.51628 5.38091 3.24632C4.66953 2.69547 4.52726 2.62615 4.12232 2.6298C3.69185 2.63345 3.60794 2.68817 2.72511 3.56736C1.88605 4.40276 1.7912 4.53409 1.74743 4.91349C1.72919 5.07036 1.74013 5.17615 1.7985 5.3695C1.86416 5.58109 1.94442 5.70877 2.37125 6.25234C2.6412 6.60255 2.86374 6.90169 2.86374 6.91264C2.86374 6.92723 2.80172 7.0841 2.72146 7.26285C2.64485 7.44161 2.55365 7.67508 2.52082 7.77723C2.48434 7.88302 2.43691 7.97058 2.41502 7.97058C2.38949 7.97423 2.01738 8.018 1.58326 8.07637C0.707726 8.18946 0.569099 8.23324 0.313734 8.4886C0.229829 8.57251 0.127683 8.71843 0.0802576 8.80963C0.00364807 8.97015 0 9.00298 0 10.1959C0 11.3888 0.00364807 11.4217 0.0802576 11.5822C0.127683 11.6734 0.229829 11.8193 0.313734 11.9032C0.569099 12.1586 0.707726 12.2023 1.58326 12.3154C2.01738 12.3738 2.38949 12.4176 2.41502 12.4212C2.43691 12.4212 2.48434 12.5088 2.52082 12.6109C2.55365 12.7167 2.64485 12.9502 2.72146 13.129C2.80172 13.3077 2.86374 13.4646 2.86374 13.4792C2.86374 13.4901 2.6412 13.7893 2.37125 14.1395C1.94442 14.683 1.86416 14.8107 1.7985 15.0223C1.74378 15.212 1.72919 15.3214 1.74743 15.4747C1.79485 15.8687 1.86052 15.9599 2.71052 16.8099C3.60794 17.7036 3.6882 17.7584 4.12232 17.762C4.52726 17.7656 4.66953 17.6963 5.38091 17.1455C5.73112 16.8755 6.02661 16.653 6.04485 16.653C6.05945 16.653 6.21631 16.715 6.39142 16.7953C6.56653 16.8719 6.80001 16.9631 6.9058 16.9959C7.00795 17.0324 7.0955 17.0798 7.0955 17.1017C7.0955 17.1272 7.14292 17.4993 7.20129 17.9298C7.31438 18.8053 7.36546 18.9549 7.61717 19.203C7.70108 19.2869 7.84335 19.389 7.93456 19.4365C8.09507 19.5131 8.1279 19.5167 9.32082 19.5167C10.5137 19.5167 10.5466 19.5131 10.7071 19.4365C10.7983 19.389 10.9442 19.2869 11.0281 19.203C11.2798 18.9513 11.3273 18.8126 11.4404 17.9335C11.4987 17.4993 11.5461 17.1272 11.5461 17.1017C11.5461 17.0798 11.6337 17.0324 11.7395 16.9959C11.8416 16.9631 12.0751 16.8719 12.2539 16.7953C12.4326 16.715 12.5895 16.653 12.6041 16.653C12.615 16.653 12.9105 16.8755 13.2607 17.1455C13.9721 17.6963 14.1144 17.7656 14.5193 17.762C14.9534 17.7584 15.0374 17.7 15.9165 16.8244C16.8103 15.9343 16.8796 15.8322 16.8869 15.4017C16.8906 14.9895 16.8249 14.8508 16.2704 14.1358C16.0004 13.7856 15.7779 13.4901 15.7779 13.4792C15.7779 13.4646 15.8399 13.3077 15.9202 13.129C15.9968 12.9502 16.088 12.7167 16.1208 12.6109C16.1573 12.5088 16.1938 12.4212 16.2047 12.4212C16.2193 12.4212 16.5586 12.3811 16.9599 12.33C17.9266 12.2096 18.0361 12.1732 18.317 11.8959C18.6599 11.553 18.6635 11.5311 18.6526 10.1375C18.6416 9.01757 18.638 8.9665 18.5614 8.80963C18.514 8.71843 18.4118 8.57251 18.3279 8.4886C18.0725 8.23324 17.9339 8.18946 17.0584 8.07637C16.6243 8.018 16.2522 7.97423 16.2266 7.97058C16.2047 7.97058 16.1573 7.88302 16.1208 7.77723C16.088 7.67508 15.9968 7.44161 15.9202 7.26285C15.8399 7.0841 15.7779 6.92723 15.7779 6.91264C15.7779 6.90169 16.0004 6.6062 16.2704 6.25598C16.8213 5.54461 16.8906 5.40234 16.8869 4.99375C16.8869 4.57057 16.814 4.46113 15.9165 3.56736C15.0374 2.69182 14.9534 2.63345 14.5193 2.6298C14.1144 2.62615 13.9721 2.69547 13.2607 3.24632C12.9105 3.51628 12.615 3.73881 12.6041 3.73881C12.5895 3.73881 12.4326 3.6768 12.2539 3.59654C12.0751 3.51993 11.8416 3.42873 11.7395 3.3959C11.6337 3.35942 11.5461 3.31199 11.5461 3.2901C11.5461 3.26456 11.4987 2.89246 11.4404 2.45834C11.3273 1.57915 11.2798 1.44053 11.0281 1.18881C10.9442 1.10491 10.7983 1.00276 10.7071 0.955336C10.5502 0.878727 10.5028 0.875078 9.3573 0.867783C8.40516 0.860485 8.1425 0.871429 8.03305 0.911558ZM10.0614 6.40555C10.8421 6.56242 11.4331 6.87616 12.0058 7.44161C12.5567 7.98152 12.8777 8.52508 13.071 9.24375C13.1549 9.55384 13.1659 9.66328 13.1659 10.1959C13.1659 10.7285 13.1549 10.838 13.071 11.148C12.8777 11.8667 12.5567 12.4103 12.0058 12.9502C10.7363 14.1978 8.88305 14.4204 7.32898 13.5047C6.87662 13.242 6.27468 12.6401 6.01202 12.1877C5.26782 10.9255 5.26782 9.45534 6.00837 8.21135C6.23091 7.83925 6.66138 7.36135 7.01524 7.09504C7.87619 6.44933 9.01074 6.19032 10.0614 6.40555Z" fill="white"/>
</svg>
