<svg width="22" height="17" viewBox="0 0 22 17" fill="none" xmlns="http://www.w3.org/2000/svg">
<path d="M0.306336 0.807196C0.229752 0.853997 0.131895 0.951855 0.0850933 1.02844C0.00425467 1.16033 0 1.24543 0 2.41971C0 3.64931 0 3.67484 0.0978573 3.81524C0.229752 4.01096 0.480777 4.12584 0.778604 4.12584H1.02112V4.46621V4.80658H0.75733C0.433976 4.80658 0.234007 4.89593 0.0978573 5.10015C0 5.24056 0 5.26609 0 6.49994C0 7.69975 0.00425467 7.75932 0.089348 7.89972C0.216988 8.10395 0.450995 8.21031 0.76584 8.21031H1.02112V8.55069V8.89106H0.76584C0.450995 8.89106 0.216988 8.99743 0.089348 9.20165C0.00425467 9.34206 0 9.40162 0 10.6014C0 11.8353 0 11.8608 0.0978573 12.0012C0.234007 12.2054 0.433976 12.2948 0.75733 12.2948H1.02112V12.6352V12.9755H0.778604C0.480777 12.9755 0.229752 13.0904 0.0936026 13.2861C0 13.4265 0 13.4521 0 14.6817C0 15.8559 0.00425467 15.941 0.0850933 16.0729C0.131895 16.1495 0.229752 16.2474 0.306336 16.2942C0.44674 16.3793 0.536088 16.3793 6.44582 16.3793C12.2066 16.3793 12.4534 16.375 12.5938 16.2984C12.6746 16.2559 12.7853 16.1453 12.8363 16.0559C12.9299 15.8942 12.9342 15.8517 12.9342 14.7072C12.9342 13.3882 12.9214 13.3244 12.6619 13.1245C12.5385 13.0309 12.4492 13.0011 12.2109 12.984L11.9131 12.9628V12.6309V12.2948H12.1726C12.6917 12.2948 12.9342 12.031 12.9342 11.4736V11.1545L13.0959 11.2013C13.1895 11.2311 13.5341 11.2481 13.9553 11.2481C14.5765 11.2439 14.7084 11.2311 15.0828 11.1333C15.5678 11.0014 16.2528 10.678 16.5847 10.427C16.7081 10.3291 16.8229 10.2526 16.84 10.2526C16.857 10.2526 17.0229 10.4057 17.2101 10.5929L17.5505 10.9333L17.2101 11.2737L16.8697 11.614L18.2738 13.0181C19.2268 13.9711 19.7416 14.4562 19.8863 14.5327C20.1841 14.6944 20.6436 14.7242 20.9755 14.5966C21.2691 14.4859 21.5499 14.2222 21.6903 13.9201C21.7796 13.7159 21.7924 13.6478 21.7754 13.3202C21.7626 13.0138 21.7371 12.916 21.6477 12.7586C21.5839 12.6564 20.9032 11.9417 20.1288 11.1673L18.7205 9.76327L18.3802 10.1036L18.0398 10.444L17.6994 10.1036C17.5122 9.91644 17.359 9.7505 17.359 9.72923C17.359 9.70796 17.4229 9.61435 17.5037 9.5165C17.8738 9.05274 18.1972 8.33795 18.3206 7.70826C18.3972 7.29982 18.3972 6.44037 18.3163 6.06171C17.9419 4.29177 16.7379 2.99835 15.019 2.52608C14.7126 2.44099 13.5766 2.41546 13.1597 2.47928L12.9342 2.51757V1.87086C12.9342 1.13481 12.8959 0.998656 12.6406 0.824215L12.4874 0.722103H6.46709C0.536088 0.722103 0.44674 0.722103 0.306336 0.807196ZM12.2534 2.07509V2.74732L11.9896 2.87496C11.845 2.94304 11.5855 3.10046 11.411 3.21959L11.1004 3.44509H5.88846H0.680746V2.42397V1.40285H6.46709H12.2534V2.07509ZM14.8956 3.23661C15.6146 3.4068 16.389 3.87906 16.8442 4.43217C17.1208 4.76829 17.4611 5.44478 17.576 5.89152C17.6909 6.33401 17.7249 7.0105 17.6611 7.4232C17.525 8.24861 17.1718 8.9251 16.5506 9.52926C15.1977 10.8525 13.1086 10.9503 11.6237 9.75901C10.6877 9.01019 10.1389 7.78485 10.2282 6.6446C10.3516 5.04484 11.2961 3.79397 12.7427 3.31745C13.4192 3.09195 14.1808 3.06642 14.8956 3.23661ZM10.4239 4.14285C10.4239 4.15136 10.3559 4.26198 10.2708 4.38537C9.97294 4.8236 9.74318 5.38522 9.59853 6.04894L9.573 6.16807H6.97765H4.38231V6.50845V6.84882H6.95638H9.53045V7.02752C9.53045 7.12963 9.54321 7.2828 9.55598 7.36789L9.58576 7.52957H5.13113H0.680746V6.50845V5.48733H4.93541H9.19008V5.14696V4.80658H5.44597H1.70187V4.46621V4.12584H6.0629C8.46253 4.12584 10.4239 4.13435 10.4239 4.14285ZM9.85381 8.51665C9.92188 8.68684 9.9857 8.84 9.98995 8.85702C9.99846 8.8783 8.13918 8.89106 5.85442 8.89106H1.70187V8.55069V8.21031H5.71402H9.73042L9.85381 8.51665ZM10.7771 9.9292C11.1217 10.2738 11.7088 10.7035 12.0747 10.8652L12.2534 10.9461V11.2822V11.614H8.31787H4.38231V11.9544V12.2948H7.80731H11.2323V12.6352V12.9755H6.46709H1.70187V12.6352V12.2948H2.72299H3.74411V11.9544V11.614H2.21243H0.680746V10.5929V9.57181H5.55659H10.4282L10.7771 9.9292ZM21.0478 13.1202C21.1542 13.3244 21.1031 13.6308 20.933 13.8052C20.7755 13.9711 20.5926 14.0222 20.3501 13.9754C20.2097 13.9499 20.0267 13.7839 19.0269 12.7926L17.8696 11.6396L18.3036 11.2013L18.7418 10.7631L19.8608 11.8778C20.4777 12.4948 21.0095 13.0521 21.0478 13.1202ZM12.2534 14.6774V15.6985H6.46709H0.680746V14.6774V13.6563H6.46709H12.2534V14.6774Z" fill="white"/>
<path d="M1.65933 2.42418V2.76453H2.02095H2.38256V2.42418V2.08384H2.02095H1.65933V2.42418Z" fill="white"/>
<path d="M3.02082 2.42418V2.76453H3.38244H3.74405V2.42418V2.08384H3.38244H3.02082V2.42418Z" fill="white"/>
<path d="M4.38229 2.42415V2.76453H7.82857H11.2749V2.42415V2.08378H7.82857H4.38229V2.42415Z" fill="white"/>
<path d="M13.2958 3.84516C12.6066 4.00258 11.9471 4.41954 11.5429 4.95137C11.0919 5.54702 10.8579 6.29584 10.9047 6.99786C11.0323 8.84013 12.4747 10.0527 14.3169 9.86551C15.5678 9.73787 16.5549 8.92097 16.8995 7.72116C16.9804 7.44035 16.9974 7.28293 16.9931 6.8064C16.9931 6.3001 16.9804 6.19373 16.8782 5.89165C16.7166 5.40662 16.4911 5.04923 16.1252 4.67907C15.5338 4.08767 14.9254 3.82814 14.0617 3.80261C13.7255 3.7941 13.4618 3.80686 13.2958 3.84516ZM14.4446 4.53016C15.5678 4.76842 16.3379 5.7087 16.3379 6.84895C16.3379 8.33808 14.9168 9.4911 13.4745 9.172C12.981 9.06138 12.6619 8.88268 12.296 8.51252C11.828 8.036 11.5727 7.45737 11.5727 6.84895C11.5727 6.26181 11.8577 5.58531 12.2747 5.16836C12.8363 4.60674 13.6575 4.36422 14.4446 4.53016Z" fill="white"/>
<path d="M1.65933 6.50866V6.849H2.02095H2.38256V6.50866V6.16831H2.02095H1.65933V6.50866Z" fill="white"/>
<path d="M3.02082 6.50866V6.849H3.38244H3.74405V6.50866V6.16831H3.38244H3.02082V6.50866Z" fill="white"/>
<path d="M1.65933 10.593V10.9333H2.02095H2.38256V10.593V10.2527H2.02095H1.65933V10.593Z" fill="white"/>
<path d="M3.02082 10.593V10.9333H3.38244H3.74405V10.593V10.2527H3.38244H3.02082V10.593Z" fill="white"/>
<path d="M4.38229 10.593V10.9333H7.46693H10.5516V10.593V10.2526H7.46693H4.38229V10.593Z" fill="white"/>
<path d="M1.65933 14.6775V15.0178H2.02095H2.38256V14.6775V14.3371H2.02095H1.65933V14.6775Z" fill="white"/>
<path d="M3.02082 14.6775V15.0178H3.38244H3.74405V14.6775V14.3371H3.38244H3.02082V14.6775Z" fill="white"/>
<path d="M4.38229 14.6774V15.0178H7.82857H11.2749V14.6774V14.3371H7.82857H4.38229V14.6774Z" fill="white"/>
</svg>
