<svg width="22" height="23" viewBox="0 0 22 23" fill="none" xmlns="http://www.w3.org/2000/svg">
<path d="M6.75778 0.513884C5.70959 0.641441 4.43401 1.09621 3.60211 1.62863C1.73312 2.82101 0.485273 4.69001 0.0915087 6.86958C-0.0305029 7.54619 -0.0305029 8.82176 0.0915087 9.49837C0.363262 10.9958 1.03987 12.3601 2.04369 13.4416C3.12516 14.6007 4.46729 15.366 6.05898 15.7321C6.73559 15.8873 8.12764 15.9317 8.86525 15.8152C10.2351 15.6045 11.4996 15.0499 12.5589 14.1958L12.9859 13.852L13.7346 14.6118L14.4889 15.366L14.3835 15.6711C14.2504 16.0482 14.2449 16.3477 14.3613 16.7026C14.4445 16.9466 14.7052 17.2239 16.8736 19.4035C18.2269 20.7678 19.3915 21.8881 19.5135 21.9546C19.6966 22.0545 19.8297 22.0767 20.2345 22.0767C20.6782 22.0767 20.7614 22.06 20.9832 21.9269C21.5156 21.6163 21.7818 21.156 21.7818 20.5515C21.7763 19.8694 21.7985 19.8915 19.1087 17.2128C16.3967 14.5119 16.4854 14.5785 15.7811 14.6284C15.5759 14.645 15.3263 14.7005 15.2209 14.7504L15.0324 14.8502L14.267 14.0849L13.5017 13.3196L13.6847 13.0977C14.4611 12.1438 15.0102 10.9902 15.282 9.72021C15.4539 8.9105 15.4539 7.45745 15.282 6.64774C14.9603 5.15032 14.328 3.9413 13.3131 2.87647C12.631 2.16659 12.0043 1.70072 11.1391 1.27923C9.96336 0.696901 8.96508 0.469515 7.67286 0.486153C7.26246 0.486153 6.85206 0.50279 6.75778 0.513884ZM8.75988 2.16659C11.3388 2.61581 13.3575 4.69001 13.7457 7.27998C13.8511 7.96214 13.8511 8.40027 13.7513 9.07133C13.3852 11.4949 11.5994 13.4804 9.23683 14.1015C8.57131 14.2735 7.51758 14.3289 6.83542 14.2291C4.46729 13.8852 2.50401 12.1604 1.8274 9.83668C1.03987 7.1136 2.28772 4.18532 4.84441 2.78773C5.30473 2.53817 6.08117 2.26641 6.61913 2.16659C7.18482 2.06676 8.16646 2.06676 8.75988 2.16659Z" fill="white"/>
<path d="M6.9408 3.33112C6.07008 3.54741 5.24373 4.21847 4.89433 5.00046C4.46729 5.95436 4.55602 7.22439 5.11617 8.03965C6.07562 9.43169 7.97235 9.81437 9.39212 8.90483C9.73597 8.68299 10.2074 8.17276 10.4126 7.80118C10.6067 7.44069 10.7786 6.75299 10.7786 6.32595C10.7786 5.89891 10.6067 5.21675 10.407 4.83962C10.3238 4.67879 10.0798 4.37376 9.86353 4.15747C9.43649 3.72488 8.89298 3.41985 8.34948 3.30893C7.96126 3.22574 7.32901 3.23683 6.9408 3.33112Z" fill="white"/>
<path d="M9.77479 9.07662C8.52695 10.0194 6.89088 10.025 5.60976 9.08772L5.3491 8.89915L5.08844 9.07662C4.72795 9.32619 4.24545 9.81424 3.99588 10.1914C3.77959 10.5241 3.51338 11.1564 3.51338 11.3505C3.51338 11.4947 4.21218 12.1935 4.67249 12.504C5.17718 12.8479 5.85933 13.1529 6.43057 13.2971C7.16818 13.4746 8.27738 13.4635 9.015 13.2694C9.99663 13.0087 10.8618 12.4929 11.5551 11.7553C11.8989 11.3893 11.8989 11.3782 11.8656 11.1286C11.849 10.99 11.727 10.6628 11.605 10.4021C11.422 10.0305 11.2833 9.84197 10.9505 9.51476C10.7176 9.28737 10.4237 9.04335 10.3017 8.9768L10.0798 8.85478L9.77479 9.07662Z" fill="white"/>
</svg>
