<svg width="22" height="19" viewBox="0 0 22 19" fill="none" xmlns="http://www.w3.org/2000/svg">
<path d="M9.29698 0.60817C6.51186 1.11301 4.17485 2.82039 2.83617 5.33325C2.55256 5.86645 2.53554 5.88914 2.43911 5.78703C2.38806 5.73031 2.15549 5.46938 1.9286 5.21413C1.4351 4.65824 1.30464 4.57882 0.896231 4.57882C0.340341 4.57882 0 4.92484 0 5.4864C0.00567235 5.65657 0.0340341 5.8551 0.0737405 5.92317C0.204205 6.15574 2.28028 8.4417 2.4618 8.55515C2.77945 8.74801 3.08009 8.69696 4.7591 8.18077C5.60995 7.91984 6.37005 7.66459 6.44946 7.61353C6.80115 7.38097 6.93161 6.73432 6.69337 6.3486C6.4211 5.90615 5.96731 5.83809 5.10511 6.11036C4.81015 6.20112 4.54355 6.28053 4.52086 6.28053C4.44145 6.28053 4.80448 5.66792 5.13348 5.23114C6.25093 3.76767 7.82217 2.80337 9.64867 2.45169C10.2726 2.33257 11.4581 2.33257 12.1332 2.45169C14.7821 2.91115 16.983 4.83975 17.7601 7.3753C18.0154 8.20913 18.0948 8.37363 18.316 8.52678C18.594 8.71397 19.0761 8.71964 19.3427 8.53246C19.8419 8.19212 19.8873 7.79505 19.5412 6.73432C18.5202 3.62019 16.0017 1.35692 12.7855 0.659221C11.963 0.477705 10.1422 0.455015 9.29698 0.60817Z" fill="white"/>
<path d="M2.43911 10.6028C1.93995 10.9488 1.89457 11.3459 2.24058 12.4066C3.25026 15.4867 5.69504 17.7159 8.8829 18.4533C9.84153 18.6745 11.3958 18.7143 12.3998 18.5441C15.2473 18.0563 17.7998 16.1844 18.991 13.6999C19.1045 13.4616 19.2123 13.2631 19.2293 13.2631C19.2463 13.2574 19.4789 13.5014 19.7398 13.8077C20.324 14.4713 20.4602 14.5621 20.8743 14.5621C21.4472 14.5621 21.7818 14.2217 21.7818 13.6545C21.7762 13.4843 21.7478 13.2858 21.7081 13.2177C21.5776 12.9852 19.5015 10.6992 19.3257 10.5858C19.0024 10.3929 18.7017 10.4383 17.0227 10.9601C16.1719 11.2211 15.4118 11.4763 15.3324 11.5274C14.9807 11.7599 14.8502 12.4066 15.0885 12.7923C15.3607 13.2348 15.8145 13.3028 16.6767 13.0305C16.9717 12.9398 17.2383 12.8604 17.261 12.8604C17.3404 12.8604 16.9773 13.473 16.637 13.9211C16.2286 14.4657 15.4231 15.2201 14.8786 15.5831C13.6533 16.3886 12.3601 16.78 10.8909 16.78C7.54423 16.78 4.73074 14.5904 3.88556 11.3232C3.77211 10.9034 3.67568 10.7446 3.43177 10.5914C3.17085 10.4269 2.6887 10.4383 2.43911 10.6028Z" fill="white"/>
</svg>
