<svg width="22" height="24" viewBox="0 0 22 24" fill="none" xmlns="http://www.w3.org/2000/svg">
<path d="M5.39409 3.13389L0 5.44628L0.148622 5.51621C0.231675 5.55118 1.35071 6.03639 2.63585 6.58717L4.97445 7.58818L4.98757 9.02194L5.00068 10.4557L7.94688 11.719L10.8975 12.9779L13.848 11.719L16.7942 10.4557L16.8074 9.02194L16.8205 7.58818L17.4324 7.33028C17.769 7.18602 18.0488 7.068 18.0532 7.068C18.0619 7.068 18.0663 8.32692 18.0663 9.86559V12.6632H18.7438H19.4213V9.56835V6.47789L20.6016 5.97519C21.2485 5.69981 21.7818 5.46376 21.7818 5.45065C21.7774 5.40693 10.963 0.817142 10.8756 0.821513C10.8275 0.821513 8.36215 1.86624 5.39409 3.13389ZM18.2848 5.45502C18.2848 5.46813 16.6238 6.18938 14.5955 7.05926L10.9062 8.64164L7.20815 7.05926C5.17553 6.18501 3.51009 5.46376 3.51009 5.45065C3.51009 5.43753 5.17116 4.71628 7.20378 3.85078L10.9018 2.27276L14.5911 3.85078C16.6238 4.71628 18.2848 5.43753 18.2848 5.45502ZM8.70311 9.18368L10.9018 10.1279L13.1486 9.16619C14.3813 8.63727 15.4042 8.20452 15.4173 8.20452C15.4304 8.20452 15.4435 8.50614 15.4435 8.87769V9.55086L13.1749 10.5213L10.9062 11.4961L8.60694 10.5169L6.31205 9.53775L6.30768 8.85146V8.16081L6.40821 8.20015C6.46067 8.22201 7.49228 8.6635 8.70311 9.18368Z" fill="white"/>
<path d="M0.406525 14.652C0.406525 15.3164 0.406525 15.3295 0.49832 15.3295C0.6382 15.3295 0.85239 15.4782 0.952928 15.6443C1.03161 15.7754 1.04035 15.8672 1.04035 16.5972C1.04035 17.3272 1.03161 17.419 0.952928 17.5501C0.85239 17.7162 0.6382 17.8649 0.49832 17.8649C0.406525 17.8649 0.406525 17.878 0.406525 18.5424V19.2199H0.891731C1.26328 19.2199 1.37257 19.233 1.35508 19.2724C1.07095 19.9106 1.08406 19.8581 1.08406 20.5313C1.08406 21.1433 1.08844 21.1782 1.22831 21.5148C1.39442 21.9301 1.72226 22.3803 2.03699 22.6295C2.29489 22.8393 2.78884 23.0841 3.07297 23.1497C3.20411 23.1803 6.26396 23.1978 12.3312 23.1978H21.3884V22.5202C21.3884 21.8558 21.3884 21.8427 21.2922 21.8427C21.1698 21.8427 20.9251 21.6547 20.8289 21.4799C20.7677 21.3618 20.7546 21.2176 20.7546 20.5313C20.7546 19.8013 20.7633 19.7095 20.842 19.5784C20.9425 19.4123 21.1567 19.2636 21.2966 19.2636C21.3884 19.2636 21.3884 19.2505 21.3884 18.5861V17.9086H20.9032C20.5316 17.9086 20.4224 17.8955 20.4398 17.8561C20.689 17.2966 20.7065 17.2267 20.724 16.7283C20.7458 16.1426 20.6803 15.8366 20.4398 15.3558C20.23 14.9361 19.771 14.4771 19.3514 14.2673C18.722 13.9526 19.5088 13.9745 9.45933 13.9745H0.406525V14.652ZM8.93041 16.5972V17.9086H5.61265H2.29489L2.34298 17.7425C2.40855 17.5239 2.40855 15.6705 2.34298 15.4476L2.29489 15.2858H5.61265H8.93041V16.5972ZM18.2499 15.3295C18.5821 15.382 18.7919 15.4869 19.0061 15.7011C19.2815 15.9765 19.3558 16.1644 19.3558 16.5972C19.3558 17.0299 19.2815 17.2179 19.0061 17.4933C18.7919 17.7075 18.5821 17.8124 18.2499 17.8649C18.11 17.8911 16.3309 17.9086 14.1234 17.9086H10.2418V16.5972V15.2858H14.1234C16.3309 15.2858 18.11 15.3033 18.2499 15.3295ZM8.93041 19.8756V20.5313H9.58609H10.2418V19.8756V19.2199H14.8709H19.5044L19.4607 19.3598C19.3514 19.7226 19.3733 21.5105 19.4869 21.8121C19.5175 21.8864 19.1503 21.8864 11.4832 21.8776L3.44453 21.8645L3.21285 21.7596C2.91561 21.6241 2.57902 21.2613 2.48286 20.9641C2.39106 20.693 2.40855 20.2297 2.5222 20.0024C2.71016 19.609 3.07297 19.338 3.50135 19.2636C3.615 19.2462 4.88266 19.2287 6.32079 19.2243L8.93041 19.2199V19.8756Z" fill="white"/>
</svg>
