<svg width="28" height="26" viewBox="0 0 28 26" fill="none" xmlns="http://www.w3.org/2000/svg">
<path d="M1.22607 9.99023C1.22328 10.216 1.28447 10.3907 1.56494 10.6494L1.56396 10.6504C1.65052 10.7275 2.02317 11.045 2.55908 11.5L4.59033 13.2139L4.59229 13.2158C5.35101 13.8574 6.04174 14.4478 6.54346 14.8818C6.79378 15.0984 6.9988 15.2774 7.14209 15.4053C7.21317 15.4687 7.27308 15.5221 7.31592 15.5625C7.33633 15.5817 7.3587 15.6035 7.37842 15.624C7.38707 15.633 7.40421 15.6514 7.42236 15.6738C7.43056 15.684 7.44957 15.7081 7.46924 15.7402C7.47902 15.7562 7.49542 15.7851 7.51123 15.8232C7.52386 15.8538 7.5561 15.9371 7.55615 16.0488C7.55615 16.081 7.55396 16.1064 7.55322 16.1133C7.55208 16.1239 7.55105 16.1326 7.55029 16.1377C7.54877 16.148 7.54729 16.1571 7.54639 16.1621C7.54448 16.1726 7.54233 16.1836 7.54053 16.1924C7.53675 16.2108 7.53085 16.2346 7.5249 16.2617C7.5128 16.3169 7.49525 16.3949 7.47314 16.4922C7.42871 16.6877 7.3646 16.9665 7.28564 17.3066L6.66943 19.9316C6.42963 20.9468 6.21228 21.8901 6.05518 22.5928C5.97661 22.9442 5.91391 23.2339 5.87061 23.4414C5.8489 23.5454 5.83224 23.6263 5.82178 23.6826C5.8192 23.6965 5.81756 23.7084 5.81592 23.7178C5.82458 23.9426 5.9424 24.1718 6.1499 24.3242L6.24854 24.3867C6.36781 24.4524 6.39141 24.4573 6.40381 24.46C6.43182 24.4661 6.48394 24.4717 6.67822 24.4717C6.82307 24.4717 6.90626 24.4644 6.95361 24.457L7.01514 24.4414L7.02002 24.4385C7.02178 24.4375 7.04528 24.4249 7.10303 24.3926C7.15811 24.3618 7.23464 24.3184 7.32959 24.2646C7.51928 24.1573 7.78223 24.008 8.09912 23.8271C8.73318 23.4653 9.58273 22.9793 10.4927 22.4561V22.4551C11.4843 21.8846 12.3261 21.4088 12.9272 21.0762C13.2271 20.9102 13.47 20.7781 13.6431 20.6875C13.7286 20.6428 13.8027 20.6052 13.8599 20.5781C13.8871 20.5652 13.9198 20.5506 13.9517 20.5381C13.9665 20.5322 13.9939 20.5216 14.0259 20.5127C14.0417 20.5083 14.069 20.5011 14.103 20.4961C14.1275 20.4925 14.2061 20.4823 14.3032 20.501L14.3374 20.5078L14.3716 20.5186C14.4032 20.5287 14.4276 20.5396 14.4331 20.542C14.443 20.5464 14.452 20.5501 14.4575 20.5527C14.4687 20.5581 14.4798 20.5647 14.4888 20.5693C14.5073 20.579 14.53 20.5908 14.5552 20.6045C14.6069 20.6326 14.6783 20.6727 14.7661 20.7217C14.9423 20.8199 15.1908 20.9592 15.4917 21.1299C16.0937 21.4714 16.9108 21.9385 17.7964 22.4502L17.7954 22.4512C18.6821 22.962 19.5136 23.4388 20.1392 23.7969C20.452 23.9759 20.7131 24.1244 20.9038 24.2324C20.9993 24.2865 21.0764 24.3306 21.1333 24.3623C21.1615 24.378 21.1839 24.3903 21.2007 24.3994L21.2231 24.4121L21.2251 24.4131C21.2795 24.4405 21.4245 24.477 21.6206 24.4785C21.77 24.4797 21.882 24.4597 21.9448 24.4414L21.9907 24.4248L21.9927 24.4238C22.1242 24.3569 22.2432 24.2537 22.3276 24.1436L22.3999 24.0322V24.0312C22.4602 23.9177 22.4582 23.9138 22.4604 23.8984C22.4657 23.8623 22.4705 23.7648 22.4282 23.498C22.3859 23.2307 22.3071 22.852 22.1792 22.2861L21.6343 19.9521V19.9512C21.3941 18.9293 21.1753 17.9947 21.0161 17.3115C20.9365 16.97 20.8716 16.6903 20.8267 16.4941C20.8043 16.3964 20.7862 16.318 20.7739 16.2627C20.7679 16.2355 20.7631 16.2118 20.7593 16.1934C20.7575 16.1846 20.7554 16.1736 20.7534 16.1631L20.7456 16.1143L20.7427 16.0488L20.7476 15.9717C20.7571 15.9001 20.7771 15.8474 20.7866 15.8242C20.8025 15.7856 20.8198 15.7563 20.8296 15.7402C20.8492 15.7082 20.8682 15.685 20.8765 15.6748C20.8946 15.6523 20.9117 15.6341 20.9204 15.625C20.9401 15.6045 20.9626 15.5826 20.9829 15.5635C21.0255 15.5234 21.0843 15.47 21.1548 15.4072C21.2971 15.2805 21.5009 15.1023 21.7495 14.8877C22.247 14.4583 22.9322 13.8757 23.6851 13.2422V13.2412C24.4415 12.6 25.1581 11.9942 25.7046 11.5303L26.7056 10.6719L26.7104 10.668C26.8806 10.5128 26.9652 10.3994 27.0112 10.3076C27.0534 10.2234 27.0786 10.1261 27.0786 9.97754C27.0785 9.7485 27.0119 9.58222 26.9165 9.46484C26.8445 9.37636 26.7397 9.29494 26.5913 9.2373L26.4272 9.18848L26.4243 9.1875C26.4453 9.19235 26.439 9.19028 26.3599 9.18066C26.2971 9.17303 26.209 9.16316 26.0981 9.15137C25.8771 9.12784 25.5711 9.09701 25.2017 9.06152L22.4146 8.80957C21.3548 8.71795 20.3859 8.62941 19.6792 8.5625C19.3261 8.52907 19.0367 8.5005 18.8345 8.47949C18.734 8.46905 18.6524 8.46105 18.5942 8.4541C18.566 8.45072 18.5387 8.44671 18.5161 8.44336C18.506 8.44185 18.4887 8.43924 18.4702 8.43555C18.4622 8.43393 18.4428 8.42955 18.4194 8.42285C18.4083 8.41966 18.3851 8.41292 18.3569 8.40137C18.3497 8.39841 18.2968 8.37868 18.2349 8.33398L18.1714 8.28125C18.131 8.24238 18.1054 8.20604 18.0991 8.19727C18.0888 8.18268 18.0818 8.16992 18.0776 8.16309C18.0692 8.14932 18.0624 8.13785 18.0591 8.13184C18.0522 8.11913 18.0459 8.10654 18.0415 8.09766C18.032 8.07861 18.0205 8.0543 18.0083 8.02832C17.9833 7.97529 17.9482 7.90044 17.9058 7.80762C17.8206 7.62138 17.7012 7.35535 17.5552 7.03027L16.4321 4.51074H16.4312C15.5828 2.59253 15.1747 1.67071 14.9185 1.19336C14.7909 0.955862 14.7273 0.881353 14.7007 0.855469C14.6869 0.842073 14.6834 0.836093 14.563 0.779297C14.5592 0.77803 14.5252 0.765327 14.4507 0.751953C14.3762 0.738577 14.2858 0.728591 14.1919 0.723633C14.0977 0.718665 14.0094 0.719197 13.939 0.724609L13.8589 0.733398H13.8569C13.6992 0.793529 13.5798 0.874849 13.4927 0.962891C13.4905 0.966937 13.4885 0.971605 13.4858 0.976562C13.4614 1.02306 13.4267 1.09161 13.3823 1.18262C13.2941 1.36372 13.1737 1.62099 13.0249 1.94336C12.8763 2.26527 12.7008 2.64996 12.5044 3.08594L11.8569 4.53613V4.53711L10.7407 7.03711C10.5957 7.36001 10.4766 7.62454 10.3921 7.80957C10.35 7.90161 10.3154 7.97562 10.2905 8.02832C10.2783 8.0542 10.2668 8.07863 10.2573 8.09766C10.2529 8.10652 10.2467 8.11909 10.2397 8.13184C10.2365 8.13783 10.2297 8.1493 10.2212 8.16309C10.217 8.16992 10.21 8.18275 10.1997 8.19727C10.1972 8.20086 10.1897 8.20789 10.1812 8.21875H10.1831C10.1727 8.23215 10.1606 8.24332 10.1499 8.25488C10.1426 8.26278 10.1362 8.27284 10.1274 8.28125H10.1265C10.0629 8.34222 10.0032 8.37239 9.98877 8.37988C9.95467 8.39751 9.92598 8.40806 9.91162 8.41309C9.88207 8.42341 9.85732 8.42926 9.84717 8.43164C9.82412 8.43704 9.80288 8.44148 9.7915 8.44336C9.76592 8.44758 9.73602 8.45133 9.70654 8.45508C9.64509 8.46289 9.55902 8.47225 9.45459 8.4834C9.24455 8.50583 8.94448 8.53628 8.57861 8.57129L5.74268 8.8291L3.47998 9.03027C2.92203 9.08136 2.53909 9.11949 2.26807 9.15039C1.86577 9.19627 1.75003 9.22359 1.69482 9.24512L1.65088 9.26562C1.4871 9.34354 1.39064 9.4351 1.33154 9.53125C1.27101 9.62981 1.22607 9.77211 1.22607 9.9834V9.99023Z" fill="white" stroke="#ECC115" stroke-width="1.17534"/>
</svg>
