<svg width="17" height="23" viewBox="0 0 17 23" fill="none" xmlns="http://www.w3.org/2000/svg">
<path d="M1.66167 0.154991C0.87745 0.423403 0.325427 1.00863 0.119514 1.79626C0.0362728 2.11308 0.0362728 20.5235 0.119514 20.8403C0.329809 21.6411 0.951929 22.2792 1.74491 22.5124C1.95959 22.574 2.71753 22.5828 9.16217 22.5828C16.2815 22.5828 16.3385 22.5828 16.4261 22.4948C16.5093 22.4112 16.5137 22.3496 16.5137 21.6059V20.8051L16.3954 20.6291C16.3078 20.5103 16.2727 20.4003 16.2727 20.2727C16.2727 20.1451 16.3078 20.0351 16.3954 19.9162L16.5137 19.7402V9.98502C16.5137 0.286997 16.5137 0.229794 16.4261 0.14179C16.3385 0.0537872 16.2815 0.0537872 9.14465 0.0537872L1.94645 0.0581856L1.66167 0.154991ZM15.8127 9.33819V17.9626H9.666C3.51927 17.9626 3.51489 17.9626 3.43603 18.0506C3.38784 18.1034 3.35279 18.209 3.35279 18.2926C3.35279 18.3762 3.38784 18.4818 3.43603 18.5346C3.51489 18.6226 3.51927 18.6226 9.666 18.6226H15.8127V18.9526V19.2826H8.95626C1.41633 19.2826 1.99026 19.2606 1.69234 19.5422C1.27613 19.925 1.27613 20.6203 1.69234 21.0031C1.99026 21.2847 1.41633 21.2627 8.95626 21.2627H15.8127V21.5927V21.9227H9.14465C5.41192 21.9227 2.34951 21.9051 2.20055 21.8831C1.26737 21.7467 0.614582 20.8843 0.785446 20.0131C0.938786 19.2254 1.47767 18.7502 2.33199 18.6446C2.45466 18.627 2.58171 18.5786 2.6299 18.5302C2.71314 18.4466 2.71314 18.2794 2.71314 9.5802V0.713816H9.26294H15.8127V9.33819ZM2.01216 9.37779V17.9582L1.76244 18.0286C1.45576 18.121 1.22356 18.2354 0.951929 18.4334L0.741635 18.5874V10.4426C0.741635 4.58158 0.754778 2.23628 0.789828 2.06907C0.859926 1.74346 1.02203 1.44425 1.24985 1.21104C1.42947 1.03503 1.82377 0.801819 1.95959 0.801819C1.99902 0.801819 2.01216 2.54429 2.01216 9.37779ZM15.5718 20.2727V20.6027H8.99131C4.91685 20.6027 2.37142 20.5851 2.30132 20.5587C2.23998 20.5367 2.15674 20.4663 2.11731 20.4003C2.04721 20.2947 2.04721 20.2727 2.10417 20.1671C2.13922 20.1055 2.21808 20.0307 2.27503 19.9999C2.36265 19.9558 3.7909 19.9426 8.97816 19.9426H15.5718V20.2727Z" fill="white"/>
<path d="M4.74599 2.78641C4.66713 2.87442 4.66275 2.97562 4.66275 5.00411C4.66275 7.0326 4.66713 7.1338 4.74599 7.2218L4.82923 7.31421H9.2717C13.6528 7.31421 13.7098 7.31421 13.7974 7.22621C13.8807 7.1426 13.885 7.081 13.885 5.00411C13.885 2.92722 13.8807 2.86562 13.7974 2.78201C13.7098 2.69401 13.6528 2.69401 9.2717 2.69401H4.82923L4.74599 2.78641ZM13.1841 5.00411V6.65418H9.26294H5.34183V5.00411V3.35404H9.26294H13.1841V5.00411Z" fill="white"/>
<path d="M6.06033 4.10634C5.98586 4.18994 5.97709 4.27354 5.97709 5.00398C5.97709 5.73441 5.98586 5.81801 6.06033 5.90161C6.14358 5.99402 6.14796 5.99402 9.2717 5.99402C12.3385 5.99402 12.3955 5.99402 12.4831 5.90601C12.5663 5.82241 12.5707 5.76081 12.5707 5.00398C12.5707 4.24714 12.5663 4.18554 12.4831 4.10194C12.3955 4.01393 12.3385 4.01393 9.2717 4.01393C6.14796 4.01393 6.14358 4.01393 6.06033 4.10634ZM11.8697 5.00398V5.33399H9.26294H6.65617V5.00398V4.67396H9.26294H11.8697V5.00398Z" fill="white"/>
</svg>
