<svg width="28" height="21" viewBox="0 0 28 21" fill="none" xmlns="http://www.w3.org/2000/svg">
<path d="M5.12648 0.925152C3.75206 1.0929 2.8484 1.30393 2.65359 1.50414C2.5129 1.63942 2.50208 1.68812 2.50208 2.06149V2.47274H1.64171C0.63524 2.47274 0.49455 2.49438 0.310571 2.67836L0.175293 2.81364V11.623V20.4323L0.299749 20.573C0.510784 20.8219 0.765107 20.8111 1.36574 20.5297C2.33434 20.0752 3.83863 19.6044 5.09943 19.3609C7.69677 18.8577 10.5755 18.8955 13.1458 19.4691C13.5408 19.5557 13.9358 19.626 14.0278 19.626C14.1198 19.626 14.5148 19.5557 14.9098 19.4691C15.9271 19.2419 16.9823 19.0958 18.1619 19.0254C21.0244 18.8414 24.3306 19.4204 26.6303 20.4972C27.3013 20.8111 27.4961 20.8327 27.7234 20.6055L27.8803 20.4485V11.6284V2.81364L27.745 2.67836C27.5611 2.49438 27.4204 2.47274 26.4139 2.47274H25.5535V2.13184C25.5535 1.6773 25.4345 1.43921 25.1531 1.34722C24.7473 1.21735 23.5893 1.00632 22.8047 0.925152C21.7603 0.81152 20.1207 0.849398 19.1846 1.00632C17.1825 1.34722 15.6782 2.02361 14.3849 3.17077L14.017 3.50085L13.6328 3.14372C12.4532 2.05067 10.727 1.28229 8.779 0.984674C7.9998 0.86022 5.91651 0.833164 5.12648 0.925152ZM7.72383 2.03985C9.63937 2.20759 11.1437 2.72706 12.3774 3.65237C12.6155 3.83093 12.951 4.12314 13.1187 4.29629L13.4272 4.61014L13.4434 11.255C13.4542 14.9075 13.4488 17.8891 13.4326 17.8837C13.4163 17.8728 13.135 17.7321 12.8103 17.5644C11.5441 16.9097 10.2833 16.5579 8.48139 16.3469C7.33423 16.2116 4.79099 16.2441 3.78993 16.4064L3.63842 16.4281V9.37735V2.32664L4.38516 2.20759C5.68383 1.99656 6.64701 1.94786 7.72383 2.03985ZM23.0861 2.12101C23.4215 2.1643 23.849 2.23465 24.0384 2.27253L24.3901 2.34287L24.4064 9.38817L24.4172 16.4389L24.244 16.4118C23.1618 16.2387 20.6889 16.2062 19.5039 16.3469C17.7344 16.5633 16.5278 16.9042 15.2453 17.5644C14.9206 17.7321 14.6339 17.8728 14.6122 17.8837C14.5906 17.8945 14.5689 14.9292 14.5689 11.2929V4.68589L14.7042 4.50733C14.8828 4.27465 15.5862 3.67942 16.0299 3.39263C17.1284 2.68377 18.6056 2.20759 20.2236 2.03985C20.8458 1.98033 22.3123 2.0182 23.0861 2.12101ZM2.50208 10.3784C2.50208 16.4172 2.5129 17.1694 2.58866 17.3263C2.73476 17.6347 2.85381 17.651 4.00097 17.5211C6.4468 17.2506 8.60043 17.3534 10.1913 17.8133L10.6458 17.9486L10.24 17.9107C9.56362 17.8566 7.55067 17.8783 6.85805 17.9486C5.1319 18.1218 3.28129 18.5438 1.80405 19.112C1.52808 19.2148 1.28999 19.3014 1.27917 19.3014C1.26834 19.3014 1.25752 15.7679 1.25752 11.4552V3.60908H1.8798H2.50208V10.3784ZM26.7981 11.4552C26.7981 15.7679 26.7873 19.3014 26.7764 19.3014C26.7656 19.3014 26.4951 19.204 26.1758 19.0849C24.6336 18.5114 22.9237 18.1218 21.1976 17.9432C20.5103 17.8728 18.4271 17.8512 17.7885 17.9107L17.4098 17.9432L17.6533 17.862C17.9942 17.7484 19.0439 17.5373 19.6824 17.4562C20.5915 17.3371 22.7884 17.3642 24.0438 17.5103C25.0395 17.6293 25.1152 17.6293 25.2776 17.5482C25.375 17.4941 25.4724 17.3967 25.4994 17.3209C25.5319 17.2343 25.5535 14.5883 25.5535 10.3946V3.60908H26.1758H26.7981V11.4552Z" fill="white"/>
</svg>
