<svg width="22" height="22" viewBox="0 0 22 22" fill="none" xmlns="http://www.w3.org/2000/svg">
<path d="M7.3404 0.390463C4.88928 0.750299 2.66676 2.19811 1.35865 4.2894C0.736341 5.28424 0.308771 6.46112 0.143669 7.62106C0.063235 8.17987 0.063235 9.40755 0.143669 9.96635C0.495039 12.4386 1.93439 14.6612 4.04261 15.982C5.07978 16.6297 6.34556 17.0784 7.53514 17.2181C8.11511 17.2859 9.48249 17.252 10.0074 17.1546C11.0488 16.9641 12.1072 16.5662 12.9623 16.0412L13.2079 15.8888L16.095 18.7718C17.6825 20.3593 19.0668 21.7055 19.1684 21.769C19.4309 21.9299 19.6976 22.0018 20.0617 22.0018C20.7136 22.0018 21.192 21.7267 21.5603 21.1425C21.6831 20.9435 21.755 20.6429 21.755 20.3085C21.755 19.9444 21.6831 19.6777 21.5222 19.4152C21.4587 19.3136 20.1125 17.9293 18.525 16.3418L15.642 13.4547L15.7944 13.2091C16.3194 12.354 16.7173 11.2956 16.9078 10.2542C17.0052 9.72928 17.0391 8.3619 16.9713 7.78193C16.7978 6.30872 16.1966 4.8355 15.261 3.60783C14.9308 3.17179 14.1688 2.40978 13.7328 2.07958C12.5432 1.17787 11.1631 0.593664 9.71956 0.390463C9.18192 0.314262 7.86534 0.314262 7.3404 0.390463ZM9.63912 1.2837C11.6754 1.60544 13.4365 2.66378 14.6303 4.28093C15.4007 5.31811 15.8495 6.40185 16.0569 7.7015C16.1416 8.2349 16.1458 9.31441 16.0612 9.87322C15.5574 13.2133 12.9666 15.8042 9.62642 16.3079C9.06762 16.3926 7.98811 16.3884 7.4547 16.3037C5.41845 15.982 3.65737 14.9236 2.46356 13.3065C1.69308 12.2693 1.24435 11.1856 1.03691 9.88592C0.94801 9.33981 0.94801 8.2476 1.03691 7.7015C1.35865 5.66525 2.41699 3.90416 4.03414 2.71035C5.05015 1.96104 6.06192 1.52501 7.3404 1.30064C7.90344 1.19904 9.06762 1.19057 9.63912 1.2837ZM15.6971 14.7797L16.2644 15.3512L15.985 15.6518C15.8325 15.8169 15.5701 16.0793 15.405 16.2317L15.1002 16.5111L14.5287 15.9396L13.9529 15.3639L14.5202 14.7924C14.8335 14.4791 15.0959 14.2167 15.1086 14.2167C15.1213 14.2124 15.388 14.4664 15.6971 14.7797ZM20.7433 19.8809C21.0862 20.4101 20.7009 21.1128 20.0659 21.1128C19.9432 21.1128 19.7865 21.0832 19.7103 21.0451C19.6341 21.007 18.7155 20.118 17.6614 19.0681L15.7521 17.1631L16.3279 16.5789L16.9078 15.9989L18.7663 17.8447C19.7865 18.8649 20.6755 19.7793 20.7433 19.8809Z" fill="#52524F"/>
<path d="M7.48858 2.0836C6.99751 2.16827 6.51067 2.30374 6.03654 2.48577C4.34742 3.13771 2.89114 4.59399 2.2392 6.28311C1.90476 7.14672 1.77353 7.85369 1.77353 8.7935C1.77353 9.73331 1.90476 10.4403 2.2392 11.3039C2.89114 12.993 4.34742 14.4493 6.03654 15.1012C6.90014 15.4357 7.60712 15.5669 8.54693 15.5669C9.48673 15.5669 10.1937 15.4357 11.0573 15.1012C12.7464 14.4493 14.2027 12.993 14.8546 11.3039C15.1891 10.4403 15.3203 9.73331 15.3203 8.7935C15.3203 7.25678 14.8758 5.91904 13.9656 4.70829C12.9073 3.29435 11.3664 2.3757 9.56293 2.07937C9.11843 2.0074 7.92885 2.01163 7.48858 2.0836ZM9.49097 2.97261C10.0879 3.07844 10.5662 3.23508 11.1081 3.49755C11.7728 3.82352 12.2554 4.17489 12.7676 4.69983C14.262 6.24077 14.7954 8.39556 14.1942 10.4784C14.0588 10.9483 13.737 11.6256 13.428 12.0913C13.119 12.5612 12.4501 13.2428 11.9844 13.5772C11.7812 13.7211 11.3875 13.9497 11.1081 14.0894C10.2614 14.5001 9.4952 14.6779 8.54693 14.6779C7.59865 14.6779 6.83241 14.5001 5.98573 14.0894C5.3211 13.7635 4.83849 13.4121 4.32625 12.8872C2.83187 11.3462 2.3027 9.1999 2.89961 7.10862C3.03931 6.62178 3.43724 5.81744 3.76321 5.356C4.09765 4.89033 4.77922 4.22146 5.24913 3.91242C5.94763 3.45098 6.75198 3.12501 7.57325 2.97684C8.01775 2.89641 9.03376 2.89641 9.49097 2.97261Z" fill="#52524F"/>
<path d="M8.23363 3.82362C8.14473 3.91252 8.12357 3.97602 8.12357 4.13265C8.1278 4.47132 8.24633 4.55176 8.81784 4.60256C9.37664 4.65336 9.73225 4.73803 10.1979 4.93699C11.1293 5.33916 11.8743 6.05037 12.3231 6.96478C12.5559 7.43892 12.6744 7.56592 12.8946 7.56592C13.174 7.56592 13.3645 7.32885 13.3179 7.03675C13.2883 6.84624 13.0089 6.28744 12.7506 5.89797C12.4924 5.51273 11.8278 4.84809 11.4425 4.58986C10.5832 4.02259 9.62218 3.71355 8.71624 3.71355C8.37333 3.71355 8.33947 3.72202 8.23363 3.82362Z" fill="#52524F"/>
<path d="M12.8904 8.48038C12.8015 8.56927 12.7803 8.63277 12.7803 8.79362C12.7803 8.95447 12.8015 9.01797 12.8904 9.10686C12.9793 9.19575 13.0428 9.21692 13.2036 9.21692C13.3645 9.21692 13.428 9.19575 13.5169 9.10686C13.6058 9.01797 13.6269 8.95447 13.6269 8.79362C13.6269 8.63277 13.6058 8.56927 13.5169 8.48038C13.428 8.39149 13.3645 8.37032 13.2036 8.37032C13.0428 8.37032 12.9793 8.39149 12.8904 8.48038Z" fill="#52524F"/>
</svg>

