<svg width="26" height="25" viewBox="0 0 26 25" fill="none" xmlns="http://www.w3.org/2000/svg">
<path d="M0.95874 10.3503C0.95601 10.5797 1.0183 10.7531 1.27319 10.9988C1.34195 11.063 1.68924 11.3722 2.19507 11.8181L4.06714 13.4587L4.06909 13.4607C4.7682 14.0745 5.40458 14.6391 5.86694 15.0544C6.09787 15.2619 6.2876 15.434 6.41968 15.5564C6.48502 15.6169 6.53954 15.6683 6.57886 15.7068C6.59765 15.7252 6.61852 15.746 6.63647 15.7654C6.64449 15.7741 6.66037 15.7905 6.67651 15.8113C6.68392 15.8208 6.70016 15.8434 6.71753 15.8728C6.72623 15.8876 6.74082 15.9143 6.75464 15.949C6.76582 15.9771 6.7937 16.0512 6.7937 16.1501C6.79368 16.1784 6.79141 16.2006 6.79077 16.2068C6.78981 16.216 6.7885 16.2236 6.78784 16.2283C6.78652 16.2375 6.78473 16.2462 6.78394 16.2507C6.78228 16.2602 6.78067 16.2699 6.77905 16.2781C6.77562 16.2955 6.77089 16.3184 6.76538 16.3445C6.75425 16.3972 6.73795 16.4719 6.71753 16.5652C6.67659 16.7523 6.61744 17.019 6.54468 17.3445L5.97729 19.8572C5.75627 20.8287 5.55571 21.7315 5.41089 22.4041C5.33846 22.7404 5.27996 23.0177 5.23999 23.2166C5.21993 23.3164 5.20479 23.3947 5.19507 23.449C5.19219 23.465 5.18989 23.478 5.18823 23.488C5.19582 23.7191 5.31278 23.9456 5.50562 24.0925L5.59546 24.1521C5.7048 24.2146 5.72592 24.2184 5.73511 24.2205C5.75864 24.2258 5.80473 24.2312 5.98413 24.2312C6.11643 24.2312 6.19175 24.2253 6.23413 24.2185L6.28687 24.2039L6.29175 24.2019C6.29104 24.2023 6.31161 24.1897 6.36792 24.157C6.41857 24.1275 6.48873 24.0872 6.57593 24.0359C6.75082 23.9331 6.99353 23.7892 7.28589 23.616L9.49292 22.3035C10.4069 21.7575 11.182 21.3015 11.7361 20.9832C12.0126 20.8243 12.2366 20.6978 12.3962 20.6111C12.4751 20.5682 12.5435 20.5326 12.5964 20.5066C12.6216 20.4942 12.6517 20.4796 12.6814 20.4675C12.6952 20.4619 12.7206 20.4528 12.7507 20.4441C12.7656 20.4398 12.7921 20.4325 12.825 20.4275C12.8367 20.4257 12.8612 20.4224 12.8943 20.4216L13.0154 20.4314L13.0486 20.4382L13.0808 20.449C13.1105 20.4589 13.1332 20.47 13.1384 20.4724C13.1477 20.4767 13.1558 20.4806 13.1609 20.4832C13.1713 20.4884 13.1818 20.4933 13.1902 20.4978C13.2073 20.5071 13.2284 20.5188 13.2517 20.532C13.2994 20.5589 13.366 20.5974 13.447 20.6443C13.6094 20.7383 13.8379 20.8717 14.115 21.0349L16.239 22.2986C17.0562 22.7874 17.8216 23.245 18.3982 23.5876C18.6865 23.759 18.9275 23.9012 19.1033 24.0046C19.1912 24.0564 19.2628 24.0983 19.3152 24.1287C19.3412 24.1438 19.3623 24.1551 19.3777 24.1638L19.3982 24.1755L19.3992 24.1765C19.4471 24.2016 19.5778 24.2366 19.7566 24.238C19.8473 24.2388 19.9226 24.231 19.9792 24.2205L20.0906 24.1882L20.0925 24.1873C20.2127 24.1237 20.3235 24.0247 20.4031 23.9167L20.4714 23.8074V23.8064C20.5267 23.6984 20.5269 23.6896 20.53 23.6677C20.5357 23.6268 20.5397 23.5285 20.5007 23.2732C20.4616 23.0164 20.3883 22.6524 20.2703 22.1101L19.7683 19.8757C19.5469 18.8975 19.3447 18.0022 19.198 17.3484C19.1247 17.0218 19.0655 16.7547 19.0242 16.5671C19.0035 16.4735 18.9866 16.3983 18.9753 16.3455C18.9698 16.3194 18.9651 16.2964 18.9617 16.2791C18.96 16.2709 18.9585 16.2612 18.9568 16.2517C18.956 16.2471 18.9542 16.2386 18.9529 16.2292C18.9522 16.2246 18.9509 16.2171 18.95 16.2078L18.947 16.1501L18.9617 16.0232C18.9699 15.9889 18.9795 15.963 18.9851 15.949C18.999 15.9141 19.0145 15.8875 19.0232 15.8728C19.0404 15.8436 19.0567 15.8219 19.0642 15.8123C19.0806 15.7912 19.0963 15.774 19.1042 15.7654C19.1223 15.7459 19.1431 15.7251 19.1619 15.7068C19.201 15.6685 19.2552 15.6174 19.3201 15.5574C19.4511 15.4361 19.6389 15.2665 19.8679 15.0613L21.6531 13.4841C22.3496 12.871 23.009 12.2912 23.5125 11.8474L24.4363 11.0251L24.5447 10.9167C24.6353 10.8189 24.6882 10.7395 24.7214 10.6707C24.7627 10.585 24.7868 10.487 24.7869 10.3396C24.7869 10.1111 24.7228 9.94441 24.6316 9.82788C24.5635 9.74086 24.4662 9.66364 24.3308 9.60913L24.1824 9.56226L24.1804 9.56128C24.2009 9.56619 24.1953 9.5647 24.1218 9.55542C24.0641 9.54814 23.9835 9.53836 23.8816 9.5271C23.6779 9.5046 23.396 9.47513 23.0554 9.44116L20.4871 9.19995C19.5101 9.11224 18.616 9.02767 17.9646 8.96362C17.6392 8.93164 17.3727 8.90463 17.1863 8.88452C17.0936 8.87453 17.0183 8.8658 16.9646 8.85913C16.9386 8.8559 16.9134 8.85261 16.8923 8.84937C16.8829 8.84791 16.8667 8.84516 16.8494 8.84155C16.8418 8.83998 16.8229 8.83647 16.8005 8.82983C16.7899 8.82666 16.7675 8.81969 16.741 8.80835C16.7325 8.80476 16.6847 8.78487 16.6287 8.74292L16.5701 8.69312C16.5337 8.65676 16.5111 8.62297 16.5056 8.61499C16.4964 8.60153 16.4898 8.59001 16.4861 8.58374C16.4785 8.57098 16.4724 8.55993 16.4695 8.55444C16.4634 8.54281 16.4578 8.53149 16.4539 8.52319C16.4453 8.50531 16.4348 8.48246 16.4236 8.45776C16.4006 8.40723 16.3689 8.33548 16.3298 8.24683C16.2514 8.06866 16.1402 7.81388 16.0056 7.50269L14.9705 5.09155C14.1886 3.2557 13.8118 2.37179 13.575 1.91382C13.457 1.68567 13.398 1.61209 13.3718 1.58569C13.3585 1.57224 13.3546 1.56718 13.2449 1.51343C13.2438 1.51323 13.2138 1.50099 13.1443 1.48804C13.0765 1.47541 12.9938 1.46637 12.908 1.46167C12.822 1.45697 12.7413 1.45756 12.6775 1.46265L12.6091 1.46948H12.6072C12.4625 1.52675 12.3519 1.60492 12.2703 1.69116C12.2678 1.69584 12.2655 1.7017 12.2625 1.70776C12.2397 1.75264 12.2076 1.81799 12.1667 1.90503C12.0853 2.07863 11.9739 2.32492 11.8367 2.63354C11.6997 2.94169 11.5382 3.31003 11.3572 3.72729L10.7605 5.11597H10.7595C10.3628 6.04338 9.99865 6.89117 9.7312 7.50952C9.59762 7.81836 9.48777 8.07084 9.40991 8.2478C9.3711 8.33602 9.33996 8.40746 9.31714 8.45776C9.30593 8.48247 9.29546 8.50527 9.28687 8.52319C9.28291 8.53145 9.27734 8.54278 9.27124 8.55444C9.26837 8.55992 9.26217 8.57103 9.25464 8.58374C9.25092 8.59 9.24426 8.6016 9.23511 8.61499C9.23293 8.61817 9.22685 8.62476 9.21948 8.63452H9.22046C9.21053 8.64776 9.19943 8.65929 9.18921 8.67065C9.1831 8.67747 9.17787 8.6859 9.17065 8.69312H9.16968C9.11198 8.75063 9.05707 8.78013 9.04272 8.78784C9.01094 8.80488 8.98405 8.81513 8.97046 8.82007C8.94227 8.8303 8.9184 8.83632 8.90894 8.83862C8.88726 8.84389 8.86778 8.84755 8.85718 8.84937C8.83308 8.8535 8.80455 8.85746 8.7771 8.86108C8.72034 8.86857 8.64159 8.87779 8.54565 8.88843C8.35195 8.90991 8.07535 8.93792 7.73804 8.97144L5.12378 9.21948C3.33316 9.38293 2.41996 9.46699 1.92065 9.52612C1.43594 9.58354 1.40622 9.6108 1.36011 9.63354H1.36108C1.20985 9.70759 1.11778 9.79614 1.0603 9.89331C1.00143 9.9929 0.95874 10.1358 0.95874 10.3445V10.3503Z" fill="url(#paint0_linear_22_118)" stroke="#ECC115" stroke-width="1.08333"/>
<defs>
<linearGradient id="paint0_linear_22_118" x1="3.12508" y1="12.8332" x2="23.1667" y2="12.8332" gradientUnits="userSpaceOnUse">
<stop offset="0.5" stop-color="#ECC115"/>
<stop offset="1" stop-color="#52524F" stop-opacity="0"/>
</linearGradient>
</defs>
</svg>
