<svg width="22" height="24" viewBox="0 0 22 24" fill="none" xmlns="http://www.w3.org/2000/svg">
<path d="M3.28515 0.862886C2.94731 0.956238 2.55168 1.19628 2.31164 1.44966C2.11605 1.65859 1.97825 1.89419 1.7871 2.36094C1.75154 2.4454 1.6982 2.4854 1.57817 2.50763C1.12031 2.59653 0.489088 3.06773 0.25349 3.50337C-0.0132255 3.99679 0.000110213 3.41446 0.000110213 13.0295C0.000110213 21.64 0.000110214 21.8222 0.0890152 22.0979C0.244599 22.6046 0.555767 22.9958 1.01807 23.2625C1.55595 23.5826 1.0403 23.5603 8.3883 23.5603C13.8382 23.5603 15.0428 23.547 15.2295 23.4981C15.5985 23.4003 15.9897 23.1692 16.2342 22.898C16.452 22.658 16.7143 22.1956 16.7143 22.0445C16.7143 21.9467 16.7943 21.8889 16.981 21.8489C17.261 21.7911 17.7233 21.5155 17.9589 21.2666C18.2256 20.9865 18.4346 20.5687 18.4924 20.1997C18.519 20.0441 18.5368 18.0971 18.5368 15.3989V10.8558L19.1058 10.838L19.6703 10.8202L20.675 10.1668C21.6529 9.53113 21.7818 9.41999 21.7818 9.21107C21.7818 9.16661 21.7507 9.0866 21.7107 9.03326C21.6351 8.92213 19.8971 7.76192 19.6615 7.66412C19.5681 7.62411 19.3414 7.60189 19.0258 7.60189H18.5368V6.60615C18.5368 6.05494 18.519 5.55707 18.4924 5.49484C18.4701 5.4326 17.4388 4.35241 16.1986 3.08996L13.9493 0.800653L8.71725 0.805099C4.64984 0.809544 3.44518 0.82288 3.28515 0.862886ZM13.4337 3.29889C13.447 5.03253 13.447 5.04587 13.5537 5.28147C13.6159 5.41482 13.7448 5.58819 13.856 5.69043C14.2027 5.99271 14.2605 6.0016 16.1008 6.0016H17.7367V6.80174V7.60189H11.8156C6.26347 7.60189 5.88118 7.60633 5.73448 7.6819C5.6278 7.7308 5.56556 7.80192 5.53445 7.89972L5.49444 8.04641H4.87655C4.28533 8.04641 4.25866 8.05086 4.15642 8.15754C4.04529 8.26423 4.04529 8.26867 4.04529 9.17995C4.04529 10.109 4.06307 10.2246 4.21865 10.3446C4.26755 10.3802 4.48981 10.3979 4.89878 10.4024H5.50778L5.52111 10.5224C5.54778 10.7402 5.73004 10.8247 6.22346 10.838L6.6591 10.8558L6.67688 11.2692C6.69021 11.7271 6.74356 11.8471 7.02361 12.0338L7.1703 12.136H9.56185C10.8732 12.136 11.9845 12.1227 12.0245 12.1094C12.109 12.0738 12.2246 11.8649 12.2246 11.736C12.2246 11.6826 12.1668 11.5804 12.0956 11.5093L11.9667 11.3804H9.6952H7.42368V11.1136V10.8469H12.5802H17.7367V15.5011C17.7367 19.933 17.7322 20.1686 17.6522 20.342C17.4655 20.7509 17.1054 21.0265 16.6476 21.1155C16.4564 21.151 14.5894 21.1599 9.9797 21.151L3.57854 21.1377L3.33405 21.0221C3.00065 20.8665 2.78728 20.6709 2.64948 20.3953L2.5339 20.1642V11.3981C2.5339 3.67229 2.54279 2.60987 2.60058 2.44095C2.73394 2.06755 3.03622 1.77861 3.43629 1.64081C3.65411 1.56524 3.97861 1.56079 8.54388 1.55635H13.4203L13.4337 3.29889ZM16.8521 4.89918L17.1677 5.2459H15.9541C15.234 5.2459 14.665 5.22812 14.5672 5.19701C14.4516 5.16589 14.3716 5.10366 14.3138 5.01031C14.2294 4.87695 14.2249 4.77915 14.2249 3.53448L14.2294 2.20091L15.3807 3.3789C16.0163 4.02791 16.6787 4.71247 16.8521 4.89918ZM1.73376 11.6826C1.73376 20.7909 1.72042 20.2931 1.96936 20.8043C2.10271 21.0754 2.55168 21.52 2.83618 21.6667C3.35183 21.9289 3.02288 21.9156 9.7441 21.9156C14.8961 21.9156 15.9141 21.9245 15.9141 21.9734C15.9141 22.049 15.7007 22.3423 15.554 22.4801C15.4963 22.5335 15.3451 22.6224 15.2251 22.6802L15.0028 22.7824H8.40163H1.80044L1.56484 22.6757C1.25812 22.5379 0.924722 22.1734 0.840263 21.8845C0.78692 21.7067 0.778029 20.3109 0.778029 12.9584V4.24572L0.871379 4.04569C0.920277 3.93456 1.02252 3.77897 1.09364 3.69451C1.227 3.53448 1.57817 3.28999 1.67597 3.28999C1.72487 3.28999 1.73376 4.81027 1.73376 11.6826ZM19.1147 9.2244V10.0468H12.6913H6.26791V9.2244V8.40203H12.6913H19.1147V9.2244ZM20.6261 9.22885C20.6261 9.25107 19.9726 9.69115 19.9371 9.69115C19.9237 9.69115 19.9148 9.48223 19.9148 9.2244V8.75765L20.2705 8.98436C20.466 9.10883 20.6261 9.21996 20.6261 9.22885ZM5.24106 8.82878L5.51222 8.85989V9.25552V9.65115L5.16994 9.63781L4.82321 9.62448L4.80987 9.21107C4.79654 8.74432 4.75653 8.77988 5.24106 8.82878Z" fill="white"/>
<path d="M4.26756 13.1274C3.99195 13.2652 3.99195 13.6519 4.26756 13.7897C4.4098 13.8653 4.65874 13.8698 7.4548 13.8698C9.44183 13.8698 10.5265 13.852 10.6065 13.8253C10.7665 13.7631 10.8421 13.6564 10.8465 13.483C10.8465 13.283 10.8065 13.2074 10.6643 13.1363C10.5576 13.0785 10.0775 13.0696 7.45925 13.0696C5.06326 13.0696 4.35202 13.0829 4.26756 13.1274Z" fill="white"/>
<path d="M4.28533 14.9099C4.0364 15.0166 3.98306 15.3633 4.18754 15.5456C4.272 15.6212 4.52093 15.6256 9.67742 15.6389L15.074 15.6478L15.2073 15.5189C15.4207 15.3055 15.3673 15.0255 15.0917 14.9099C14.8695 14.821 4.49426 14.821 4.28533 14.9099Z" fill="white"/>
<path d="M4.21865 16.7281C4.02306 16.8793 4.00973 17.1682 4.19198 17.3371C4.28089 17.426 4.38757 17.426 9.69076 17.426C15.0606 17.426 15.0962 17.426 15.194 17.3371C15.2473 17.2882 15.3051 17.1949 15.3184 17.1371C15.354 16.9993 15.2651 16.7726 15.154 16.7148C15.0295 16.6437 4.30756 16.657 4.21865 16.7281Z" fill="white"/>
<path d="M4.20976 18.5373C4.14753 18.5862 4.0853 18.684 4.06752 18.7552C4.0364 18.9019 4.13419 19.133 4.24533 19.1775C4.28533 19.1908 6.74356 19.2041 9.70854 19.2041C15.6341 19.2041 15.2518 19.2219 15.314 18.933C15.354 18.7596 15.2695 18.564 15.1317 18.4973C15.0517 18.4618 13.5537 18.4484 9.67298 18.4484C4.37868 18.4484 4.3209 18.4484 4.20976 18.5373Z" fill="white"/>
</svg>
