<svg width="20" height="20" viewBox="0 0 20 20" fill="none" xmlns="http://www.w3.org/2000/svg">
<path d="M1.21916 0.0752487C1.15696 0.110237 1.06754 0.184103 1.02478 0.242418C0.947026 0.347383 0.947026 0.41736 0.935363 8.17318C0.927587 15.0854 0.935363 16.0145 0.985902 16.1234C1.02867 16.2167 1.68568 16.7299 3.47787 18.0711C5.87654 19.8711 5.91153 19.8983 6.11369 19.9138C6.35472 19.9333 6.54132 19.8594 6.66184 19.6961C6.73959 19.5912 6.73959 19.5212 6.75126 11.7654C6.75903 4.85315 6.75126 3.924 6.70072 3.81515C6.65795 3.72185 6.00094 3.20868 4.20875 1.86745L1.77509 0.0402603L1.55738 0.0285969C1.40965 0.0169353 1.29691 0.0363731 1.21916 0.0752487ZM5.29728 10.6652C5.64328 10.8945 5.64328 11.3766 5.29728 11.606C5.16122 11.6954 4.89297 11.7032 4.73358 11.6215C4.38758 11.4388 4.37203 10.8712 4.71025 10.669C4.87353 10.568 5.14955 10.568 5.29728 10.6652Z" fill="white"/>
<path d="M5.48389 1.4319C6.51799 2.20943 7.42381 2.91309 7.49379 2.99473C7.69595 3.23965 7.84368 3.58176 7.88644 3.90444C7.90977 4.07938 7.92532 6.618 7.92532 10.3074V16.4226H10.6583C13.2669 16.4226 13.3913 16.4187 13.5002 16.3487C13.5585 16.3099 13.644 16.2243 13.6829 16.166C13.7529 16.0572 13.7568 15.9367 13.7568 13.5963V11.1432L12.1551 11.1277C10.6505 11.1121 10.5378 11.1043 10.3318 11.0305C10.0207 10.9138 9.91189 10.8516 9.70585 10.6728C9.47259 10.4668 9.3132 10.2179 9.20046 9.89916C9.11882 9.65813 9.11104 9.5726 9.11104 8.80285C9.11104 8.0331 9.11882 7.94757 9.20046 7.70654C9.3132 7.38775 9.47259 7.13895 9.70585 6.9329C9.91189 6.75407 10.0207 6.69187 10.3318 6.57524C10.5378 6.50137 10.6505 6.4936 12.1551 6.47805L13.7568 6.4625V3.42626C13.7568 0.514422 13.7529 0.382242 13.6829 0.27339C13.644 0.215075 13.5585 0.129547 13.5002 0.0906696C13.3913 0.0206928 13.2203 0.0168056 8.49291 0.0168056H3.59838L5.48389 1.4319Z" fill="white"/>
<path d="M16.3809 6.53254C16.1554 6.64528 16.1088 6.75803 16.0971 7.21677L16.0816 7.63663H13.3563C10.7477 7.63663 10.6233 7.64052 10.5145 7.7105C10.2696 7.87378 10.2579 7.92431 10.2579 8.80292C10.2579 9.68152 10.2696 9.73206 10.5145 9.89534C10.6233 9.96532 10.7477 9.96921 13.3563 9.96921H16.0816L16.0971 10.3852C16.1049 10.7312 16.1243 10.8245 16.1865 10.91C16.2954 11.0577 16.4742 11.1355 16.7075 11.1355H16.9057L18.1887 10.1714C19.5493 9.15281 19.5882 9.11393 19.5882 8.80292C19.5882 8.49191 19.5493 8.45303 18.1887 7.43059L16.9057 6.47034H16.6997C16.5908 6.47034 16.447 6.49755 16.3809 6.53254Z" fill="white"/>
</svg>
