<svg width="14" height="9" viewBox="0 0 14 9" fill="none" xmlns="http://www.w3.org/2000/svg">
<path d="M1.04088 0.113545C0.806833 0.202826 0.596187 0.417101 0.479162 0.684944C0.42455 0.812913 0.416748 0.87541 0.416748 1.14623C0.416748 1.43193 0.421949 1.47359 0.489564 1.6224C0.551977 1.75632 1.1189 2.41997 3.51922 5.16983C5.97416 7.98218 6.50207 8.57144 6.6321 8.65179C6.78033 8.74405 6.80114 8.75 7.06119 8.75C7.32125 8.75 7.34205 8.74405 7.49029 8.65179C7.62292 8.57144 8.14563 7.98516 10.6136 5.15495C12.9671 2.45866 13.5912 1.72656 13.6432 1.60751C13.6978 1.47955 13.7056 1.41705 13.7056 1.14623C13.7056 0.86053 13.6978 0.818865 13.6302 0.664112C13.5392 0.458765 13.3884 0.286155 13.1985 0.173066C13.0685 0.0986652 13.0295 0.0897369 12.7954 0.0897369C12.3403 0.0897369 12.6004 -0.169178 9.65656 3.19672L7.06119 6.16085L4.46843 3.19672C1.5532 -0.13049 1.78465 0.0986652 1.36595 0.0837851C1.23593 0.0808086 1.1033 0.0927124 1.04088 0.113545Z" fill="white"/>
</svg>
