<svg width="15" height="13" viewBox="0 0 15 13" fill="none" xmlns="http://www.w3.org/2000/svg">
<path d="M2.96294 0.0456018C2.90677 0.0736866 2.22223 0.730152 1.4464 1.50949C0.0702812 2.89263 0.035176 2.93124 0.0141129 3.09273C-0.0350342 3.41569 -0.0385447 3.40867 1.46747 4.92521C2.25031 5.71157 2.90677 6.34346 2.96996 6.37154C3.12794 6.44175 3.28591 6.43122 3.45793 6.34697C3.69664 6.23463 3.81249 5.91869 3.71419 5.65891C3.69664 5.60625 3.27187 5.1534 2.77689 4.6549L1.87468 3.74919L6.36814 3.75972L10.8616 3.77026L11.1775 3.86855C12.4027 4.24768 13.2874 5.07617 13.6981 6.23463C13.9649 6.97184 13.9649 7.86702 13.7051 8.63231C13.3365 9.71355 12.4413 10.6017 11.3531 10.9598C10.7914 11.1458 11.0933 11.1388 5.50806 11.1599C0.400269 11.1774 0.330059 11.1774 0.235275 11.2476C0.0808127 11.36 -0.0139712 11.5882 0.0141129 11.7777C0.042197 11.9743 0.20017 12.1639 0.375696 12.213C0.466969 12.2411 2.08883 12.2481 5.70114 12.2411C11.4549 12.2271 10.995 12.2446 11.7392 11.9989C13.3576 11.4618 14.5582 10.0927 14.9197 8.37605C15.018 7.90564 15.0286 7.08418 14.9373 6.59622C14.6951 5.26573 13.9087 4.10024 12.7538 3.35952C12.343 3.09624 11.7498 2.86103 11.167 2.72763C10.8265 2.6504 10.823 2.6504 6.37165 2.63987L1.9133 2.62583L2.79795 1.74118C3.2824 1.25322 3.69664 0.810894 3.71419 0.758236C3.81249 0.501968 3.70015 0.182512 3.47197 0.0631542C3.32804 -0.0140762 3.1139 -0.0210981 2.96294 0.0456018Z" fill="#390808"/>
</svg>
