<svg width="5" height="7" viewBox="0 0 5 7" fill="none" xmlns="http://www.w3.org/2000/svg">
<path d="M0.0567727 6.69472C0.101413 6.8092 0.20855 6.91223 0.342472 6.96947C0.406457 6.99618 0.437705 7 0.573115 7C0.715964 7 0.736797 6.99746 0.811198 6.96438C0.878158 6.93386 1.20999 6.65656 2.58491 5.48249C3.99109 4.2817 4.28572 4.02348 4.3259 3.95988C4.37202 3.88738 4.375 3.8772 4.375 3.75C4.375 3.6228 4.37202 3.61262 4.3259 3.54012C4.28572 3.47524 3.99258 3.21957 2.57747 2.01243C1.22933 0.861253 0.863278 0.555969 0.803757 0.530529C0.739773 0.503816 0.708524 0.5 0.573115 0.5C0.430265 0.5 0.409433 0.503816 0.332056 0.536889C0.229383 0.581409 0.143077 0.655186 0.0865331 0.748043C0.0493326 0.811644 0.0448685 0.830724 0.0448685 0.945206C0.0448685 1.16781 -0.084589 1.04061 1.59836 2.48053L3.08042 3.75L1.59836 5.0182C-0.0652452 6.44413 0.0493326 6.33092 0.0418925 6.53571C0.0404043 6.59932 0.0463562 6.66419 0.0567727 6.69472Z" fill="#52524F"/>
</svg>
