<svg width="24" height="26" viewBox="0 0 24 26" fill="none" xmlns="http://www.w3.org/2000/svg">
<path d="M10.5616 0.332884C9.97745 0.551952 9.55392 0.936537 9.27644 1.50125C9.12552 1.81281 9.12065 1.84202 9.09631 2.64526L9.07197 3.46799L8.75554 3.57508C6.50158 4.33939 4.65654 6.311 3.99934 8.66232C3.78027 9.45096 3.74133 9.85989 3.74133 11.3642C3.73646 13.7203 3.6537 14.6745 3.35187 15.8672C2.94295 17.4932 2.11049 19.1143 1.04923 20.3703C0.299534 21.2514 0.333611 21.1979 0.333611 21.5045C0.333611 21.8161 0.426106 22.0011 0.65491 22.152C0.791219 22.2396 0.947 22.2445 4.23301 22.2445H7.67481L7.80138 22.6437C7.9815 23.2279 8.22978 23.6173 8.7312 24.1188C9.23262 24.625 9.71944 24.9025 10.3815 25.068C10.9024 25.1995 11.6716 25.1995 12.1925 25.068C12.8545 24.9025 13.3414 24.625 13.8428 24.1188C14.3442 23.6173 14.5925 23.2279 14.7726 22.6486L14.8992 22.2445H18.341C21.627 22.2445 21.7828 22.2396 21.9191 22.152C22.1479 22.0011 22.2404 21.8161 22.2404 21.5045C22.2404 21.1979 22.2744 21.2563 21.5199 20.3605C20.4148 19.0607 19.5337 17.2838 19.1539 15.5995C18.9203 14.5771 18.8813 14.066 18.8521 11.997C18.8278 9.9037 18.7986 9.53372 18.6038 8.78889C18.2436 7.40146 17.5864 6.29152 16.5105 5.24973C15.7316 4.49517 14.7823 3.90125 13.8428 3.57995L13.502 3.46312L13.4777 2.6404C13.4533 1.83228 13.4485 1.81768 13.2878 1.48177C13.0687 1.0339 12.6842 0.649315 12.2363 0.435116C11.9199 0.279335 11.8517 0.26473 11.36 0.254993C10.9219 0.240389 10.7758 0.254993 10.5616 0.332884ZM11.6375 1.83228C11.8906 1.98319 11.9783 2.19252 12.0075 2.70368L12.0318 3.16129H11.287H10.5422L10.5665 2.70368C10.5957 2.19739 10.6736 2.0124 10.9267 1.84202C11.1069 1.72518 11.4428 1.72031 11.6375 1.83228ZM12.1827 4.72397C14.3393 5.01119 16.3207 6.66637 17.0266 8.78402C17.2992 9.60674 17.3284 9.89883 17.3722 12.3134C17.416 14.9325 17.4744 15.3901 17.9418 16.9382C18.2923 18.092 19.0322 19.5914 19.7187 20.526L19.9085 20.7841H11.287H2.66546L2.85532 20.5309C3.54173 19.5914 4.2817 18.092 4.6322 16.9382C5.09955 15.3901 5.15797 14.9325 5.20178 12.3134C5.23099 10.6047 5.2602 10.0011 5.32348 9.66029C5.75188 7.30897 7.51416 5.42012 9.82167 4.83594C10.5568 4.64608 11.3259 4.612 12.1827 4.72397ZM13.1807 22.5366C12.9811 22.9114 12.5868 23.2814 12.1779 23.4762C11.8663 23.6222 11.8176 23.6319 11.287 23.6319C10.7612 23.6319 10.7077 23.6222 10.4107 23.481C9.99692 23.2863 9.59287 22.9066 9.39327 22.5415L9.23749 22.2445H11.287H13.3365L13.1807 22.5366Z" fill="white"/>
<path d="M3.7316 2.81063C3.40543 2.96154 2.43667 4.12016 1.88656 5.02077C0.917798 6.60293 0.333618 8.63782 0.333618 10.405C0.333618 11.033 0.377432 11.1595 0.654917 11.3445C0.844776 11.4711 1.26831 11.4711 1.47277 11.3445C1.75025 11.1693 1.79894 11.0232 1.84275 10.2005C1.96932 7.97575 2.84072 5.90678 4.31578 4.32463C4.70523 3.91083 4.81233 3.72097 4.81233 3.47757C4.81233 2.92259 4.24276 2.57209 3.7316 2.81063Z" fill="white"/>
<path d="M18.1414 2.82523C17.8104 2.99562 17.6692 3.46783 17.8396 3.8086C17.8882 3.89623 18.0732 4.12503 18.2582 4.32463C19.7333 5.90678 20.5949 7.94654 20.7264 10.1859C20.7799 11.0232 20.8238 11.1741 21.1012 11.3445C21.3057 11.4711 21.7292 11.4711 21.9191 11.3445C22.1966 11.1595 22.2404 11.033 22.2404 10.405C22.2404 8.63782 21.6562 6.60293 20.6874 5.02077C20.1373 4.12016 19.1686 2.96154 18.8424 2.81063C18.6087 2.69866 18.3653 2.70353 18.1414 2.82523Z" fill="white"/>
<rect x="13.2612" y="0.788574" width="10.5936" height="10.5936" rx="1.92612" fill="#9F1616"/>
<path d="M16.9343 9.78857V9.03555L19.3406 6.75051C19.5425 6.56009 19.6925 6.39275 19.7906 6.24849C19.8887 6.10424 19.9522 5.97152 19.9811 5.85034C20.0157 5.7234 20.033 5.60511 20.033 5.49547C20.033 5.21849 19.9378 5.00499 19.7474 4.85497C19.5569 4.69917 19.2771 4.62127 18.9078 4.62127C18.6135 4.62127 18.3452 4.6732 18.1028 4.77707C17.8662 4.88093 17.6614 5.03962 17.4883 5.25312L16.7006 4.64723C16.9372 4.32987 17.2546 4.08463 17.6527 3.91152C18.0567 3.73264 18.5067 3.6432 19.003 3.6432C19.4415 3.6432 19.8224 3.71533 20.1455 3.85959C20.4744 3.99808 20.7254 4.19715 20.8985 4.45681C21.0774 4.71648 21.1669 5.02519 21.1669 5.38295C21.1669 5.57914 21.1409 5.77533 21.089 5.97152C21.037 6.16194 20.9389 6.3639 20.7947 6.5774C20.6504 6.7909 20.4398 7.03037 20.1628 7.2958L18.0942 9.26059L17.8605 8.83647H21.4006V9.78857H16.9343Z" fill="white"/>
</svg>
