<svg width="19" height="23" viewBox="0 0 19 23" fill="none" xmlns="http://www.w3.org/2000/svg">
<path d="M8.25817 0.180565C7.38127 0.33971 6.50863 0.696713 5.76795 1.19136C4.18868 2.25376 3.28199 3.88393 3.22239 5.78078C3.20962 6.2152 3.20537 6.24531 3.09895 6.32703C3.03935 6.37434 2.96699 6.47327 2.94144 6.54209C2.89462 6.65393 2.85631 6.67113 2.6307 6.71414C1.92407 6.83888 1.34941 7.36793 1.16636 8.06903C0.991836 8.72712 1.21745 9.48844 1.71549 9.92717C1.94961 10.1336 2.37529 10.3358 2.64773 10.3702C2.85205 10.3917 2.87334 10.4089 2.95421 10.5681C3.08192 10.8089 3.28199 10.9337 3.55017 10.9337C3.8524 10.9337 4.12483 10.7917 4.24402 10.5681C4.33341 10.4003 4.33767 10.353 4.35044 8.58948C4.35895 6.93351 4.3547 6.77006 4.28659 6.61091C4.24402 6.52059 4.18017 6.40876 4.14186 6.36574C4.08226 6.29692 4.07801 6.25821 4.12483 6.03885C4.29085 5.26033 4.68247 4.38287 5.12943 3.785C6.59377 1.82794 9.39048 1.20856 11.6423 2.34409C12.1787 2.61076 12.5448 2.88174 12.9832 3.32047C13.6941 4.03447 14.1921 4.95064 14.4092 5.95713C14.4773 6.26251 14.4773 6.30122 14.4135 6.36574C14.3794 6.40876 14.3156 6.52059 14.273 6.61091C14.2092 6.76576 14.2006 6.95071 14.2134 8.56798C14.2262 10.482 14.2304 10.5207 14.4475 10.7272L14.5582 10.8304L14.5199 11.2993C14.4475 12.0821 14.3113 12.4305 13.9197 12.8004C13.5621 13.1402 13.1024 13.3079 11.3358 13.751L10.5228 13.9531L10.3951 13.8585C10.1397 13.6692 9.71399 13.6907 9.46284 13.9144C9.00737 14.3187 9.14784 15.0499 9.72251 15.2349C9.93109 15.3037 10.2376 15.2693 10.3823 15.1618C10.4845 15.0843 10.659 14.8564 10.6931 14.7575C10.7016 14.7359 11.1485 14.6026 11.6849 14.465C13.494 13.9961 14.0602 13.7553 14.6008 13.2133C15.1031 12.7101 15.2606 12.3058 15.3074 11.3896C15.333 10.9165 15.3457 10.8605 15.4351 10.7831C15.4862 10.7358 15.5671 10.6283 15.6139 10.5465C15.682 10.4132 15.7161 10.3917 15.9076 10.3702C16.7249 10.267 17.274 9.7078 17.4145 8.83465C17.5082 8.27119 17.3422 7.67762 16.9761 7.2561C16.7079 6.95071 16.3333 6.76146 15.8736 6.69694C15.7033 6.67543 15.665 6.65393 15.6224 6.54209C15.5926 6.47327 15.5117 6.37004 15.4479 6.30983C15.3287 6.2109 15.3244 6.19369 15.3244 5.84099C15.3244 3.72048 13.8558 1.48814 11.8935 0.619291C11.0038 0.227879 10.5909 0.137552 9.53521 0.116046C8.84561 0.0988417 8.62851 0.111745 8.25817 0.180565Z" fill="white"/>
<path d="M8.56465 2.56782C6.39795 2.96353 5.00172 4.67112 4.86125 7.08842C4.77186 8.58095 5.06557 10.0004 5.7424 11.3509C6.38943 12.6413 7.30464 13.5704 8.28796 13.9317C8.44121 13.9876 8.57317 14.0263 8.57742 14.022C8.58168 14.0134 8.63702 13.9188 8.70087 13.8026C8.85411 13.5317 9.0627 13.3252 9.33513 13.1833C9.53094 13.0757 9.60331 13.0628 9.96088 13.0628C10.3993 13.0628 10.5653 13.1188 10.9101 13.394L11.0676 13.5231L11.3741 13.2736C12.4894 12.3488 13.3663 10.5853 13.643 8.71859C13.7239 8.17233 13.7324 7.11423 13.6643 6.63249C13.4174 4.90769 12.5618 3.63023 11.2039 2.95923C10.4036 2.55922 9.4075 2.41298 8.56465 2.56782Z" fill="white"/>
<path d="M6.10849 14.551C3.98861 14.7489 2.06029 16.0264 0.991831 17.9447C0.655545 18.5426 0 20.448 0 20.8222C0 21.162 0.144731 21.5018 0.400138 21.7556C0.800276 22.1513 -0.0553382 22.1169 9.2798 22.1169C18.6149 22.1169 17.7593 22.1513 18.1595 21.7556C18.4149 21.5018 18.5596 21.162 18.5596 20.8222C18.5596 20.448 17.904 18.5426 17.5678 17.9447C16.8994 16.7404 15.9289 15.8113 14.7157 15.2048C14.0219 14.8607 13.1875 14.6199 12.4383 14.551L12.0893 14.5209L11.7445 14.7489C11.5529 14.8736 11.3826 14.9769 11.3656 14.9769C11.3486 14.9769 11.3018 15.0586 11.2549 15.1532C10.9101 15.9317 9.80764 16.207 9.13081 15.6866C8.97331 15.5618 8.86689 15.5231 8.57317 15.4672C7.93891 15.3597 7.35147 15.1188 6.81086 14.7532C6.65762 14.65 6.51714 14.5553 6.4916 14.5424C6.47032 14.5295 6.29579 14.5338 6.10849 14.551Z" fill="white"/>
</svg>
