<svg width="15" height="17" viewBox="0 0 15 17" fill="none" xmlns="http://www.w3.org/2000/svg">
<path d="M6.2481 0.0530157C5.58466 0.171548 4.92444 0.437443 4.36407 0.805852C3.16924 1.59713 2.48325 2.81128 2.43817 4.22405C2.4285 4.54761 2.42528 4.57003 2.34477 4.6309C2.29968 4.66614 2.24493 4.73982 2.22561 4.79108C2.19018 4.87437 2.1612 4.88718 1.99051 4.91922C1.45589 5.01212 1.02112 5.40616 0.882632 5.92834C0.750589 6.41848 0.921279 6.98551 1.29809 7.31228C1.47522 7.46605 1.79727 7.61661 2.00339 7.64224C2.15798 7.65826 2.17408 7.67107 2.23527 7.78961C2.33189 7.96901 2.48325 8.06191 2.68615 8.06191C2.91481 8.06191 3.12093 7.95619 3.2111 7.78961C3.27873 7.66467 3.28196 7.62943 3.29162 6.31597C3.29806 5.0826 3.29484 4.96087 3.24331 4.84233C3.2111 4.77506 3.16279 4.69177 3.13381 4.65973C3.08872 4.60847 3.0855 4.57964 3.12093 4.41626C3.24653 3.83642 3.54282 3.18289 3.88098 2.7376C4.98886 1.27998 7.10477 0.818666 8.80845 1.6644C9.21424 1.86303 9.49121 2.06485 9.82293 2.39161C10.3608 2.9234 10.7376 3.60576 10.9018 4.35539C10.9533 4.58285 10.9533 4.61168 10.905 4.65973C10.8793 4.69177 10.831 4.77506 10.7988 4.84233C10.7505 4.95766 10.744 5.09541 10.7537 6.29995C10.7633 7.72554 10.7666 7.75437 10.9308 7.90814L11.0145 7.98502L10.9856 8.33421C10.9308 8.91726 10.8277 9.17675 10.5315 9.45225C10.2609 9.70533 9.9131 9.83027 8.57657 10.1602L7.96144 10.3108L7.86482 10.2403C7.67159 10.0994 7.34953 10.1154 7.15952 10.282C6.81492 10.5831 6.9212 11.1277 7.35597 11.2655C7.51378 11.3167 7.74566 11.2911 7.85516 11.211C7.93246 11.1533 8.0645 10.9836 8.09026 10.9099C8.0967 10.8939 8.43486 10.7945 8.84066 10.692C10.2094 10.3428 10.6377 10.1634 11.0467 9.75979C11.4268 9.38498 11.5459 9.08384 11.5814 8.40149C11.6007 8.04909 11.6103 8.00745 11.678 7.94978C11.7166 7.91455 11.7778 7.83446 11.8132 7.77359C11.8648 7.67428 11.8905 7.65826 12.0355 7.64224C12.6538 7.56536 13.0693 7.14889 13.1755 6.49857C13.2464 6.07891 13.1208 5.63682 12.8438 5.32287C12.6409 5.09541 12.3575 4.95446 12.0097 4.9064C11.8809 4.89039 11.8519 4.87437 11.8197 4.79108C11.7971 4.73982 11.7359 4.66293 11.6876 4.61808C11.5975 4.5444 11.5942 4.53159 11.5942 4.2689C11.5942 2.68954 10.4831 1.0269 8.99846 0.379779C8.32536 0.0882549 8.01297 0.0209808 7.21427 0.00496292C6.69254 -0.0078516 6.52829 0.00175953 6.2481 0.0530157Z" fill="white"/>
<path d="M6.47975 1.83001C4.84048 2.12474 3.78413 3.39655 3.67785 5.19695C3.61022 6.30859 3.83244 7.36576 4.34451 8.37168C4.83404 9.33274 5.52646 10.0247 6.27041 10.2938C6.38635 10.3355 6.48619 10.3643 6.48941 10.3611C6.49263 10.3547 6.53449 10.2842 6.5828 10.1977C6.69874 9.99588 6.85655 9.84211 7.06267 9.73639C7.21081 9.6563 7.26556 9.64669 7.53609 9.64669C7.86781 9.64669 7.99341 9.68834 8.25428 9.89337L8.37344 9.98947L8.60532 9.80367C9.44911 9.1149 10.1125 7.80144 10.3219 6.4111C10.3831 6.00425 10.3895 5.21617 10.338 4.85737C10.1512 3.57275 9.50386 2.62129 8.4765 2.12154C7.87103 1.82361 7.11742 1.71469 6.47975 1.83001Z" fill="white"/>
<path d="M4.62151 10.7555C3.01767 10.9029 1.55875 11.8543 0.750392 13.2831C0.495967 13.7284 0 15.1476 0 15.4263C0 15.6794 0.109499 15.9324 0.302733 16.1215C0.605467 16.4162 -0.0418674 16.3906 7.02084 16.3906C14.0835 16.3906 13.4362 16.4162 13.7389 16.1215C13.9322 15.9324 14.0417 15.6794 14.0417 15.4263C14.0417 15.1476 13.5457 13.7284 13.2913 13.2831C12.7857 12.3861 12.0514 11.6941 11.1335 11.2424C10.6085 10.9862 9.97732 10.8068 9.4105 10.7555L9.14641 10.7331L8.88555 10.9029C8.74062 10.9958 8.6118 11.0726 8.59892 11.0726C8.58603 11.0726 8.55061 11.1335 8.51518 11.204C8.25431 11.7838 7.42019 11.9889 6.90812 11.6012C6.78896 11.5083 6.70844 11.4795 6.48622 11.4379C6.00636 11.3578 5.56192 11.1784 5.15291 10.9061C5.03697 10.8292 4.93069 10.7587 4.91137 10.7491C4.89526 10.7395 4.76322 10.7427 4.62151 10.7555Z" fill="white"/>
</svg>
